<?xml version="1.0" standalone="no"?>
<!DOCTYPE svg PUBLIC "-//W3C//DTD SVG 20010904//EN"
 "http://www.w3.org/TR/2001/REC-SVG-20010904/DTD/svg10.dtd">
<svg version="1.0" xmlns="http://www.w3.org/2000/svg"
 width="1200.000000pt" height="1203.000000pt" viewBox="0 0 1200.000000 1203.000000"
 preserveAspectRatio="xMidYMid meet">

<g transform="translate(0.000000,1203.000000) scale(0.100000,-0.100000)"
fill="#000000" stroke="none">
<path d="M5885 11948 c-86 -101 -99 -180 -34 -213 57 -30 154 -11 179 34 25
48 -5 125 -78 194 l-29 28 -38 -43z"/>
<path d="M6166 11941 c-30 -33 -58 -193 -36 -206 23 -14 125 -16 150 -3 56 30
48 117 -17 189 -39 43 -70 50 -97 20z"/>
<path d="M5544 11929 c-16 -18 -19 -37 -19 -118 l0 -96 71 0 c87 0 114 18 114
75 0 66 -78 160 -133 160 -8 0 -22 -9 -33 -21z"/>
<path d="M6466 11918 c-8 -13 -19 -43 -25 -68 -10 -45 -21 -130 -17 -130 1 0
28 -5 60 -11 126 -23 178 38 125 148 -38 78 -111 110 -143 61z"/>
<path d="M5236 11901 c-21 -23 -30 -109 -19 -171 8 -45 9 -45 53 -48 59 -5
117 13 131 40 25 47 -17 138 -85 179 -39 24 -58 24 -80 0z"/>
<path d="M6781 11886 c-26 -28 -51 -104 -51 -157 0 -35 3 -39 38 -48 98 -28
162 0 162 70 0 48 -29 109 -66 138 -35 27 -55 27 -83 -3z"/>
<path d="M4926 11848 c-17 -24 -20 -84 -10 -161 6 -40 10 -47 34 -52 34 -8
120 12 142 32 38 35 16 105 -51 166 -49 44 -91 49 -115 15z"/>
<path d="M7086 11835 c-24 -25 -53 -106 -58 -159 -3 -27 1 -31 42 -43 59 -18
120 -11 142 17 35 43 15 136 -38 185 -34 32 -59 32 -88 0z"/>
<path d="M4630 11800 c-23 -23 -28 -111 -9 -186 11 -44 12 -44 48 -38 128 21
173 63 144 134 -19 47 -41 70 -88 91 -51 24 -70 24 -95 -1z"/>
<path d="M7385 11764 c-23 -25 -65 -131 -65 -164 0 -29 142 -55 176 -32 35 23
43 82 19 140 -35 81 -86 104 -130 56z"/>
<path d="M4330 11720 c-25 -25 -27 -90 -4 -170 l16 -57 43 8 c142 27 182 97
102 179 -57 58 -122 75 -157 40z"/>
<path d="M7688 11693 c-38 -47 -86 -162 -74 -182 9 -14 96 -41 133 -41 47 0
69 14 82 50 18 52 -16 157 -58 180 -30 15 -66 12 -83 -7z"/>
<path d="M5865 11683 c-1834 -43 -3543 -981 -4571 -2509 -485 -722 -804 -1561
-913 -2404 -41 -314 -46 -401 -46 -770 1 -380 10 -520 56 -830 239 -1603 1150
-3023 2509 -3912 1325 -868 2928 -1138 4485 -758 820 201 1598 598 2280 1167
165 137 472 439 617 604 1090 1255 1577 2891 1347 4529 -220 1570 -1082 2967
-2393 3877 -981 681 -2163 1034 -3371 1006z m520 -103 c1535 -110 2925 -818
3908 -1990 539 -643 934 -1422 1137 -2242 159 -645 201 -1311 124 -1993 -88
-787 -360 -1572 -787 -2270 -328 -536 -779 -1045 -1287 -1450 -1198 -955
-2745 -1373 -4275 -1154 -1855 265 -3477 1473 -4264 3175 -281 609 -442 1218
-503 1904 -18 214 -16 734 6 950 114 1171 536 2186 1282 3085 141 169 524 553
689 690 947 783 2043 1220 3250 1298 123 8 593 6 720 -3z"/>
<path d="M5337 11447 c-77 -10 -100 -29 -43 -35 16 -2 31 -12 36 -25 13 -32
53 -365 45 -377 -4 -6 -18 -15 -31 -20 -39 -15 -30 -33 14 -27 20 3 65 9 100
13 64 7 81 26 29 32 -15 2 -31 11 -36 20 -12 23 -54 359 -47 378 3 8 17 19 31
24 14 5 25 14 25 20 0 11 -13 11 -123 -3z"/>
<path d="M6654 11417 c-69 -63 -54 -153 36 -207 104 -62 131 -103 110 -166
-14 -40 -35 -54 -85 -54 -65 0 -125 50 -125 105 0 8 -7 15 -15 15 -13 0 -15
-11 -13 -57 l3 -56 65 -19 c36 -10 79 -18 95 -18 72 0 145 70 145 139 0 52
-32 96 -94 131 -77 44 -106 76 -106 117 0 38 39 83 72 83 52 0 108 -49 108
-95 0 -8 7 -15 15 -15 11 0 15 12 15 49 0 48 -1 49 -40 65 -22 9 -65 16 -95
16 -48 0 -60 -4 -91 -33z"/>
<path d="M5053 11402 c-55 -10 -83 -20 -83 -29 0 -8 11 -13 30 -13 18 0 33 -7
38 -17 5 -10 24 -99 42 -197 31 -172 32 -180 14 -193 -10 -7 -24 -13 -31 -13
-13 0 -18 -12 -8 -21 2 -3 45 2 94 10 87 16 117 33 67 39 -13 2 -29 9 -34 15
-10 12 -72 334 -72 374 0 15 9 24 31 32 17 6 28 15 24 21 -7 12 -6 12 -112 -8z"/>
<path d="M7040 11390 c0 -6 11 -15 24 -19 13 -5 26 -15 28 -23 6 -15 -56 -342
-72 -375 -7 -17 -18 -23 -40 -23 -33 0 -41 -16 -12 -24 9 -2 44 -10 77 -16 33
-6 68 -14 78 -16 10 -3 17 0 17 9 0 8 -9 17 -20 20 -11 3 -23 13 -26 22 -7 16
35 247 62 342 13 47 17 52 47 55 57 5 35 20 -58 39 -106 22 -105 22 -105 9z"/>
<path d="M4830 11359 c-14 -4 -44 -13 -67 -19 -49 -12 -56 -27 -15 -32 25 -3
27 -7 29 -48 2 -25 -5 -108 -15 -185 l-17 -140 -103 138 c-57 77 -106 145
-109 152 -2 8 5 20 16 27 12 7 21 18 21 25 0 7 -1 13 -2 13 -2 0 -38 -11 -81
-23 -79 -22 -99 -39 -53 -45 20 -3 56 -45 166 -198 78 -107 146 -194 151 -194
12 0 15 16 44 254 26 213 32 238 63 255 25 14 3 30 -28 20z"/>
<path d="M5872 11298 c-18 -18 -14 -46 7 -58 25 -13 48 -4 56 21 12 38 -35 65
-63 37z"/>
<path d="M6107 11303 c-14 -13 -6 -53 12 -63 15 -7 24 -5 41 8 19 16 21 22 11
40 -11 21 -50 30 -64 15z"/>
<path d="M7496 11279 c-133 -20 -233 -158 -211 -289 12 -69 61 -131 134 -167
55 -28 75 -33 137 -33 73 0 129 13 120 28 -3 5 2 32 10 61 12 39 22 55 41 62
34 13 25 20 -60 45 -78 23 -97 16 -53 -20 l27 -21 -18 -60 c-23 -72 -47 -86
-119 -67 -63 17 -91 38 -122 91 -22 38 -27 58 -27 116 0 58 5 79 29 122 34 61
84 99 143 109 62 10 144 -31 166 -83 9 -21 18 -49 19 -62 6 -49 26 -33 34 25
7 63 8 62 -72 110 -51 30 -115 42 -178 33z"/>
<path d="M4207 11176 c-60 -23 -73 -39 -37 -44 25 -4 25 -4 -1 -107 -14 -56
-25 -83 -33 -78 -9 5 -134 90 -145 99 -2 2 2 10 9 18 25 31 3 33 -65 6 -75
-30 -94 -50 -47 -50 43 0 232 -125 232 -154 0 -27 -44 -187 -59 -215 -6 -11
-21 -26 -32 -32 -13 -7 -18 -14 -12 -20 11 -11 135 33 141 50 2 6 -8 11 -22
11 -14 0 -26 5 -26 12 0 18 42 172 49 180 4 4 44 -17 90 -48 78 -53 82 -56 66
-74 -27 -30 -3 -31 73 -2 75 28 94 52 42 52 -32 0 -238 122 -247 147 -3 8 7
58 23 111 20 70 36 104 56 124 48 45 34 49 -55 14z"/>
<path d="M5877 11094 c-13 -13 -7 -51 9 -65 23 -19 49 1 49 37 0 24 -5 30 -25
32 -14 2 -29 0 -33 -4z"/>
<path d="M6100 11081 c-8 -17 -7 -24 10 -41 28 -28 63 -11 58 28 -4 35 -51 44
-68 13z"/>
<path d="M3654 10935 c-34 -7 -75 -20 -92 -29 -76 -39 -132 -132 -132 -216 0
-85 69 -198 144 -237 47 -25 151 -23 201 4 69 37 130 120 122 166 -3 18 -7 14
-24 -23 -41 -91 -135 -145 -214 -121 -90 27 -172 143 -172 244 0 145 137 219
254 137 52 -37 50 -3 -4 61 -22 26 -22 26 -83 14z"/>
<path d="M5820 10940 c-894 -44 -1746 -321 -2484 -807 -734 -485 -1314 -1139
-1709 -1929 -106 -211 -178 -386 -257 -624 -469 -1399 -293 -2920 481 -4170
757 -1223 2026 -2065 3437 -2280 290 -44 427 -54 762 -54 335 0 472 10 762 54
789 120 1557 444 2203 930 359 270 715 626 985 985 975 1298 1247 2987 731
4535 -472 1414 -1571 2544 -2976 3063 -603 222 -1295 328 -1935 297z m591
-100 c645 -50 1255 -220 1830 -511 692 -350 1304 -877 1761 -1517 894 -1249
1134 -2883 640 -4352 -296 -877 -836 -1648 -1567 -2235 -1237 -993 -2886
-1314 -4415 -858 -1272 379 -2348 1282 -2945 2474 -512 1021 -645 2216 -369
3332 309 1249 1113 2335 2219 2995 637 379 1366 612 2100 671 159 12 589 13
746 1z"/>
<path d="M5725 10210 c-1040 -84 -1958 -509 -2682 -1241 -605 -612 -1002
-1382 -1147 -2224 -45 -261 -59 -438 -59 -720 0 -280 15 -456 59 -713 278
-1626 1509 -2954 3109 -3351 993 -247 2041 -126 2940 338 1084 560 1872 1561
2155 2735 76 315 108 560 117 896 18 707 -145 1416 -471 2035 -453 860 -1183
1537 -2068 1916 -370 158 -783 266 -1198 314 -160 19 -600 27 -755 15z m530
-90 c564 -34 1061 -163 1563 -405 882 -426 1597 -1177 1982 -2080 45 -105 120
-309 120 -325 0 -6 -27 -10 -59 -10 -71 0 -106 -12 -113 -37 -3 -11 3 -51 14
-89 11 -38 22 -90 25 -116 5 -47 5 -48 -30 -63 -54 -22 -79 -19 -163 21 -90
44 -160 56 -170 29 -4 -10 -2 -25 3 -34 11 -16 16 -17 66 -5 20 5 52 -4 119
-32 l91 -38 66 17 c76 20 115 45 119 77 2 12 -9 67 -24 120 -33 118 -30 132
28 128 l42 -3 19 -60 c117 -380 170 -752 170 -1185 0 -369 -28 -625 -104 -945
-185 -773 -564 -1438 -1140 -2000 -646 -630 -1450 -1013 -2374 -1131 -177 -23
-724 -26 -910 -6 -1108 123 -2088 665 -2790 1542 -85 106 -278 392 -347 515
-207 365 -366 791 -448 1195 -56 278 -71 427 -77 778 -3 181 -2 322 3 322 5 0
29 -7 53 -16 51 -17 85 -12 96 13 4 10 13 62 20 115 15 120 23 132 87 126 45
-5 55 -11 137 -92 90 -87 121 -103 140 -69 16 29 -5 53 -45 53 -31 0 -46 10
-109 70 -66 65 -77 72 -132 82 -66 12 -125 5 -143 -17 -7 -8 -18 -62 -25 -120
-14 -113 -24 -136 -55 -128 -25 7 -25 25 -5 198 92 791 427 1554 954 2174 129
153 389 405 551 535 790 634 1793 955 2795 896z"/>
<path d="M5840 9529 c-724 -28 -1441 -299 -2030 -767 -129 -103 -437 -412
-544 -547 -409 -516 -650 -1090 -742 -1770 -25 -186 -26 -636 -1 -830 89 -682
332 -1258 755 -1790 120 -150 382 -413 527 -529 423 -337 901 -568 1425 -690
408 -94 885 -111 1311 -46 987 150 1865 719 2412 1561 352 542 534 1123 562
1794 20 456 -84 1049 -255 1450 -335 790 -928 1424 -1685 1802 -324 162 -626
261 -974 317 -265 43 -475 56 -761 45z m535 -149 c411 -22 535 -51 543 -129 4
-39 -31 -99 -61 -106 -32 -8 -95 17 -230 91 -171 95 -267 103 -164 13 23 -20
58 -51 77 -68 l35 -31 -35 -30 c-18 -16 -67 -43 -106 -60 -113 -47 -185 -37
-170 24 6 26 42 44 96 48 52 4 44 25 -27 74 -103 70 -229 82 -294 26 -30 -24
-30 -27 -23 -88 5 -53 4 -64 -8 -64 -21 0 -65 -46 -106 -110 -65 -103 -133
-164 -216 -190 -27 -9 -52 -22 -54 -29 -2 -6 20 -22 50 -35 30 -13 60 -31 67
-40 12 -15 10 -22 -23 -55 -37 -38 -60 -93 -51 -122 16 -49 168 -50 421 -4
154 28 200 28 211 -1 10 -26 -21 -45 -93 -55 -76 -11 -114 -30 -114 -58 0 -19
24 -44 53 -54 26 -10 22 -76 -12 -198 -42 -147 -43 -163 -9 -167 32 -4 77 23
175 106 40 34 99 79 130 100 63 43 183 106 189 99 2 -2 -19 -34 -48 -70 -28
-37 -48 -70 -45 -74 10 -10 131 26 205 62 112 53 162 126 162 236 0 56 39 138
83 175 47 40 123 72 202 84 99 15 165 51 248 134 53 53 84 75 117 85 46 14
206 18 218 6 13 -12 -47 -54 -246 -171 -361 -214 -462 -293 -569 -447 -90
-127 -168 -176 -414 -257 -248 -82 -355 -143 -379 -216 -19 -57 -2 -62 72 -21
80 44 158 69 333 107 294 64 386 109 730 360 206 151 332 230 460 291 156 75
267 95 356 64 48 -17 139 -79 139 -95 0 -6 -21 -10 -47 -10 -138 -1 -294 -45
-491 -140 -169 -81 -278 -149 -400 -247 -297 -241 -609 -383 -841 -383 -83 0
-229 -48 -239 -78 -5 -17 41 -15 153 8 53 11 100 20 103 20 3 0 -42 -28 -99
-62 -76 -46 -104 -68 -104 -83 0 -17 38 -32 300 -113 235 -73 317 -95 380 -99
l80 -6 135 71 c74 38 169 82 210 97 83 30 222 46 234 26 16 -26 -250 -172
-418 -230 -49 -16 -96 -37 -104 -45 -12 -12 -11 -16 14 -33 89 -58 326 18 652
211 179 106 234 134 307 156 82 26 152 63 319 170 147 94 190 116 259 134 117
30 185 -11 298 -183 219 -331 370 -796 424 -1306 17 -163 20 -554 5 -706 -23
-231 -64 -428 -136 -652 -115 -357 -326 -807 -379 -807 -36 0 -44 175 -45 890
0 655 -5 757 -38 793 -23 26 -70 18 -96 -16 -19 -25 -21 -45 -24 -178 -4 -135
-6 -150 -20 -144 -532 211 -799 292 -1002 302 -110 6 -174 -7 -192 -40 -9 -15
-14 -83 -16 -204 l-4 -183 439 0 c382 0 890 -13 900 -24 2 -1 -4 -19 -12 -39
-27 -65 -36 -177 -45 -567 -9 -353 -22 -515 -43 -536 -14 -15 -55 15 -62 44
-7 35 -38 51 -116 61 -73 9 -89 33 -96 142 -6 92 9 190 33 210 15 12 90 16
101 5 4 -3 -3 -13 -15 -22 -48 -33 -69 -116 -57 -223 l8 -66 23 108 c13 60 25
114 27 120 2 7 13 -21 26 -61 12 -39 25 -72 30 -72 22 0 27 283 11 550 -15
242 -30 290 -97 309 -45 13 -41 2 13 -37 47 -35 52 -55 15 -60 -41 -6 -55 -47
-60 -165 -2 -68 0 -107 6 -104 6 4 25 57 44 119 l34 112 8 -69 c18 -176 -35
-269 -107 -185 -27 33 -56 116 -56 162 0 15 -4 28 -9 28 -12 0 -20 -175 -27
-603 l-7 -369 -56 6 c-31 3 -144 11 -251 17 -107 6 -196 12 -196 13 -1 0 -4
111 -7 246 l-6 245 29 -189 c16 -104 31 -191 34 -193 2 -2 7 30 11 72 8 86 2
591 -7 600 -3 4 -17 -5 -31 -19 -26 -26 -83 -46 -130 -46 -16 0 -38 -10 -52
-25 -21 -20 -25 -34 -25 -79 0 -60 16 -106 36 -106 51 0 25 -340 -35 -463 -11
-23 -34 -50 -51 -60 -32 -20 -60 -64 -60 -96 0 -29 42 -47 135 -61 69 -9 552
-25 940 -31 l120 -2 -175 -13 c-343 -26 -690 -43 -1055 -54 -996 -29 -1055
-33 -1158 -78 -52 -23 -87 -70 -87 -117 1 -56 64 -108 194 -160 78 -32 126
-43 126 -30 0 3 -5 14 -11 24 -19 29 -3 66 50 120 56 57 85 64 103 25 16 -35
76 -63 150 -70 105 -9 148 -37 133 -84 -8 -26 -10 -25 -140 10 -134 36 -216
39 -246 9 -43 -43 6 -113 123 -174 115 -61 238 -94 238 -65 0 12 -65 60 -138
102 -29 16 -51 32 -49 35 7 6 143 -35 194 -59 23 -11 59 -36 79 -55 l38 -35
19 23 c27 33 19 126 -17 196 -26 52 -33 83 -18 83 4 -1 18 -7 32 -15 14 -8 28
-14 33 -15 10 0 9 51 -3 108 -14 62 4 127 35 127 16 0 21 -8 23 -35 6 -55 15
-60 113 -60 49 0 89 -4 89 -8 0 -5 -9 -17 -20 -27 -68 -61 -26 -246 65 -289
44 -21 66 -18 82 13 17 35 39 45 121 52 39 3 75 9 79 13 4 4 -8 19 -27 34 -50
38 -100 88 -100 100 0 20 32 42 59 42 18 0 40 -12 64 -35 63 -62 124 -58 99 7
-13 36 -2 58 29 58 22 0 49 37 49 66 0 54 101 122 162 109 16 -4 36 -18 45
-31 22 -35 4 -73 -52 -106 -43 -27 -56 -50 -35 -63 20 -13 81 18 191 96 147
104 167 104 135 -3 -8 -25 -12 -49 -9 -52 11 -10 56 -6 107 9 69 21 89 20 77
-4 -20 -37 -204 -222 -294 -294 -396 -322 -929 -599 -1347 -701 -337 -82 -649
-119 -995 -120 -246 0 -267 1 -390 27 -338 72 -795 218 -1010 323 -206 100
-546 338 -792 552 -64 56 -218 221 -212 226 2 2 46 0 97 -4 68 -6 107 -15 146
-34 63 -31 85 -29 196 20 101 44 208 73 301 80 84 7 196 -3 183 -16 -5 -5 -58
-18 -119 -30 -231 -44 -325 -75 -325 -106 0 -32 44 -38 140 -19 69 13 94 15
103 6 9 -9 9 -16 -1 -31 -21 -34 -15 -60 13 -60 76 0 325 130 325 170 0 18 32
40 59 40 29 0 51 -16 51 -36 0 -26 -54 -75 -137 -125 -93 -57 -123 -81 -123
-103 0 -20 51 -38 113 -38 67 -1 145 38 192 97 26 32 30 45 29 91 -1 44 2 54
17 59 28 9 58 -12 67 -48 8 -30 11 -32 50 -29 38 2 41 0 52 -32 22 -68 -7
-125 -99 -194 -32 -25 -40 -59 -19 -80 24 -24 63 -12 133 39 39 29 98 65 132
81 84 40 113 75 113 137 0 65 29 93 105 99 62 5 85 -7 85 -43 0 -30 -46 -85
-71 -85 -24 0 -45 -34 -53 -90 -10 -62 -19 -71 -72 -63 -51 7 -128 -18 -139
-45 -11 -30 23 -44 90 -38 33 3 70 9 83 12 41 12 22 -11 -44 -51 -36 -22 -77
-52 -91 -68 l-27 -27 23 0 c49 0 240 118 368 227 29 25 60 62 70 84 15 36 20
39 55 39 71 0 223 98 255 165 15 31 15 35 -7 79 -26 55 -69 81 -162 97 -43 8
-424 13 -1175 16 l-1113 4 -10 42 c-27 106 -33 127 -51 156 -13 21 -27 31 -43
31 -50 0 -121 105 -246 362 -195 403 -295 720 -347 1101 -22 162 -25 567 -5
727 44 356 107 605 239 940 125 319 276 592 383 697 82 80 95 80 142 -5 23
-43 78 -67 182 -80 112 -15 184 -47 294 -135 46 -37 88 -67 93 -67 20 0 20 30
0 115 -34 141 -30 147 69 94 64 -34 125 -92 173 -164 18 -27 43 -57 58 -67 22
-17 30 -18 72 -6 38 10 59 10 109 -1 100 -20 180 -73 152 -101 -48 -48 -483
-28 -680 31 -38 11 -82 23 -98 26 -31 6 -31 10 -10 -57 10 -32 -18 -34 -165
-15 -152 19 -216 18 -216 -4 0 -56 283 -117 661 -144 222 -16 234 -21 234
-102 0 -67 16 -85 74 -85 62 0 148 32 371 137 297 141 470 210 641 253 217 55
292 98 339 194 62 126 30 389 -49 404 -29 6 -66 -38 -107 -127 -68 -146 -118
-191 -266 -238 -92 -29 -108 -26 -99 21 6 31 3 37 -40 74 -57 51 -138 92 -180
92 -27 0 -34 5 -43 31 -6 18 -11 53 -11 79 0 195 -157 340 -369 340 -84 0
-161 -20 -276 -72 -106 -48 -151 -56 -191 -35 -16 8 -69 24 -118 36 -171 42
-229 95 -191 176 22 44 92 108 112 101 21 -8 43 6 141 91 113 100 234 177 407
262 385 189 770 309 1090 340 119 12 573 12 790 1z m-175 -575 c5 -14 6 -35 1
-47 -7 -20 -15 -23 -63 -23 -65 0 -100 -23 -174 -114 -27 -33 -53 -60 -57 -60
-18 -2 70 145 114 189 79 79 160 104 179 55z m526 13 c11 -18 -31 -46 -151
-103 -147 -70 -243 -107 -280 -109 -26 -1 -30 3 -30 24 0 19 12 32 55 58 65
38 235 107 317 126 74 18 80 18 89 4z m-1970 -431 c94 -49 190 -239 155 -306
-13 -24 -52 -28 -98 -10 -15 6 -68 41 -118 79 -105 80 -173 118 -227 127 -48
7 -75 41 -59 71 10 18 60 42 116 56 43 10 200 -1 231 -17z m3754 -110 c15 -7
26 -23 28 -38 6 -53 -110 -119 -211 -119 -56 0 -173 -42 -290 -105 -137 -73
-217 -93 -407 -105 -161 -10 -229 -23 -304 -60 -50 -24 -96 -57 -96 -70 0 -4
25 -18 55 -30 39 -16 55 -28 53 -39 -4 -20 -82 -58 -247 -122 l-135 -51 -223
38 c-123 21 -221 39 -220 41 2 1 85 28 183 58 260 79 466 165 686 286 168 92
247 128 423 188 323 112 628 167 705 128z m-4144 -223 c21 -14 55 -41 74 -59
50 -47 112 -75 202 -91 96 -17 130 -33 157 -77 30 -50 56 -69 108 -82 59 -15
65 -35 25 -75 -55 -55 -120 -37 -228 60 -91 83 -167 136 -294 205 -131 72
-170 101 -170 126 0 30 76 26 126 -7z m2680 -4159 c18 -14 18 -16 -14 -45 -36
-33 -67 -39 -76 -14 -9 25 -7 33 14 54 24 24 49 25 76 5z m778 -65 c15 -15
-16 -21 -85 -18 -67 3 -85 18 -34 30 36 8 106 1 119 -12z m-2140 -101 c14 -7
23 -16 20 -20 -8 -13 -112 -11 -120 2 -16 26 54 39 100 18z m-338 -233 c3 -8
-2 -28 -10 -44 -16 -31 -65 -76 -74 -68 -7 8 18 74 39 100 23 29 37 33 45 12z"/>
<path d="M5516 9209 c-85 -86 -117 -129 -95 -129 15 0 132 114 165 161 48 70
16 55 -70 -32z"/>
<path d="M5676 9049 c-85 -86 -117 -129 -95 -129 15 0 132 114 165 161 48 70
16 55 -70 -32z"/>
<path d="M4830 8957 c-31 -69 -37 -146 -16 -202 20 -52 41 -58 50 -14 9 45 6
220 -4 244 -7 17 -11 14 -30 -28z"/>
<path d="M4566 8950 c-8 -50 4 -154 16 -142 22 22 21 182 -1 182 -5 0 -11 -18
-15 -40z"/>
<path d="M5145 8769 c-193 -210 -263 -255 -324 -213 -23 16 -23 16 -10 -7 15
-30 202 -219 216 -219 24 0 195 133 338 264 58 54 51 52 -106 -22 -118 -55
-189 -111 -189 -148 0 -13 -4 -24 -9 -24 -17 0 -61 61 -61 84 0 37 45 112 153
256 130 172 129 170 125 170 -2 0 -62 -63 -133 -141z"/>
<path d="M4295 8807 c-8 -13 -22 -46 -30 -74 -8 -28 -22 -56 -30 -63 -15 -13
-37 -2 -117 60 -36 28 -35 15 4 -46 62 -98 90 -170 86 -224 -1 -28 -2 -50 0
-50 2 0 48 43 103 95 108 104 136 116 158 68 10 -22 14 -24 22 -12 13 20 1 70
-24 97 -39 42 -66 29 -130 -63 -20 -29 -53 -31 -70 -5 -11 19 9 66 58 134 43
60 48 106 10 106 -15 0 -31 -9 -40 -23z"/>
<path d="M4693 8735 c11 -35 18 -67 15 -71 -4 -3 -23 0 -43 7 -46 17 -55 6
-55 -68 0 -69 12 -68 82 5 65 68 74 91 54 130 -13 25 -55 62 -70 62 -2 0 5
-29 17 -65z"/>
<path d="M3887 8593 c-13 -12 -7 -31 19 -63 40 -47 96 -72 157 -68 l51 3 -34
32 c-54 50 -178 112 -193 96z"/>
<path d="M5429 8470 c-114 -58 -159 -90 -125 -90 39 0 151 59 226 119 48 38
14 28 -101 -29z"/>
<path d="M5946 8098 c-8 -236 -19 -319 -51 -379 -13 -25 -31 -74 -40 -109 -21
-82 -38 -106 -92 -130 -26 -11 -43 -25 -41 -32 10 -29 63 -40 224 -48 205 -10
214 -14 214 -101 0 -70 17 -118 54 -146 45 -36 35 -71 -49 -168 -92 -107 -103
-132 -63 -150 38 -17 49 -52 45 -145 -7 -159 -72 -222 -182 -176 -61 26 -84
107 -70 252 l8 79 26 -115 c36 -156 45 -167 77 -92 15 35 16 60 11 187 -1 36
6 67 26 111 15 34 24 69 21 78 -3 9 -23 20 -43 26 -32 8 -297 40 -336 40 -10
0 -14 -58 -17 -272 -3 -187 -9 -283 -17 -305 l-13 -33 -161 0 c-222 0 -270
-15 -283 -89 -16 -88 -71 -139 -229 -216 -182 -88 -195 -86 -195 30 0 101 -16
176 -41 198 -33 26 -85 22 -105 -9 -16 -23 -16 -36 -4 -141 16 -135 6 -205
-35 -259 -31 -41 -31 -61 0 -104 55 -74 63 -177 75 -880 10 -582 22 -868 39
-898 8 -14 12 -10 27 21 10 20 21 37 25 37 3 0 9 -21 12 -46 6 -55 21 -72 73
-84 51 -12 629 -12 761 0 161 14 195 38 179 125 -13 69 -89 86 -210 45 -97
-32 -102 -49 -30 -97 32 -21 21 -33 -30 -33 -53 0 -96 30 -96 66 0 39 -47 80
-102 88 -89 13 -168 -25 -168 -82 0 -15 -7 -38 -16 -50 -26 -37 -59 -28 -120
32 -36 35 -84 68 -138 94 -97 47 -110 68 -109 167 1 89 24 339 33 348 4 4 10
-34 14 -85 15 -199 36 -271 95 -321 60 -50 221 -62 263 -19 22 22 31 82 46
302 l7 115 18 -140 c29 -234 74 -292 235 -302 137 -8 151 16 159 260 3 87 9
160 13 162 4 3 10 -37 14 -88 16 -215 66 -335 105 -249 7 15 17 81 21 148 8
125 25 178 66 216 29 26 126 68 157 68 47 0 27 -22 -55 -63 -51 -26 -79 -47
-88 -65 -17 -37 -24 -180 -14 -298 l8 -99 9 65 c16 119 38 208 58 234 40 51
62 8 73 -141 14 -205 86 -204 105 1 11 108 31 161 72 182 39 20 37 40 -11 107
-48 67 -51 87 -11 87 41 0 76 -45 102 -131 11 -38 25 -69 30 -69 5 0 18 34 30
75 12 41 26 75 30 75 11 0 17 -61 23 -205 8 -244 27 -255 467 -262 381 -7 384
-6 396 145 6 87 16 98 27 31 10 -62 43 -120 77 -132 16 -6 29 -15 29 -18 0 -4
-26 -27 -57 -51 -68 -52 -93 -100 -74 -147 15 -34 48 -51 100 -51 92 0 99 32
111 525 6 215 12 408 13 430 1 22 16 -131 32 -340 l30 -380 8 185 c4 102 6
309 4 460 -5 308 -11 346 -70 432 -56 82 -72 151 -71 298 1 139 14 189 64 252
37 45 38 71 4 86 -42 20 -64 85 -74 229 -10 143 -26 206 -53 211 -33 7 -50
-59 -55 -215 -2 -79 -6 -143 -7 -143 -1 0 -81 33 -177 74 -192 82 -344 130
-456 146 -81 11 -148 40 -156 67 -2 10 -7 32 -11 49 -3 17 -28 57 -54 88 -72
85 -89 158 -116 496 -15 193 -35 344 -54 408 -6 19 -25 50 -44 71 -42 46 -106
161 -148 266 -27 68 -32 94 -34 175 -2 90 -39 326 -55 343 -4 4 -10 -79 -14
-185z m-120 -1164 c9 -50 -1 -232 -16 -272 -9 -25 -17 -32 -33 -30 -36 5 -48
44 -43 133 5 93 18 142 47 179 27 35 37 33 45 -10z m423 -100 c1 -96 -8 -152
-20 -132 -10 16 -12 209 -2 234 12 31 22 -13 22 -102z m39 -280 c47 -33 14
-84 -55 -84 -42 0 -83 25 -83 50 0 6 9 19 20 30 24 24 86 27 118 4z m122 -142
c0 -61 -25 -76 -128 -81 -88 -3 -186 12 -198 31 -4 6 2 18 12 25 15 11 41 14
113 10 106 -5 156 5 174 34 18 29 27 23 27 -19z m-827 7 c31 -17 37 -29 36
-74 -2 -84 -28 -121 -47 -65 -15 43 -50 53 -157 46 -105 -6 -158 2 -163 27 -9
45 267 99 331 66z m323 -24 c48 -20 39 -37 -27 -54 -66 -17 -158 -8 -191 19
l-23 19 35 15 c45 20 160 20 206 1z m266 -216 c306 -172 323 -177 733 -189
399 -13 478 -25 460 -72 -17 -44 -150 -67 -387 -68 l-158 0 0 -127 c0 -143
-13 -240 -34 -261 -23 -23 -37 38 -46 206 -10 176 -18 198 -77 207 -152 23
-244 60 -480 191 -95 53 -179 94 -187 91 -8 -3 -78 -47 -155 -97 -192 -124
-289 -169 -388 -181 -97 -12 -149 -40 -177 -94 -19 -36 -21 -57 -21 -207 0
-91 -3 -170 -8 -174 -22 -23 -51 79 -66 237 -19 197 -41 224 -179 224 -80 0
-92 -3 -143 -32 -31 -18 -63 -33 -72 -33 -21 0 -77 48 -87 74 -25 68 60 86
481 106 360 17 445 43 694 208 66 44 123 81 127 81 4 1 81 -40 170 -90z m-91
-107 c30 -25 20 -48 -28 -62 -32 -10 -46 -9 -76 4 -20 8 -37 22 -37 30 0 42
99 62 141 28z m299 -261 c12 -64 13 -288 1 -349 -32 -165 -86 71 -64 277 17
151 42 180 63 72z m-470 38 c36 -8 62 -21 85 -45 19 -19 40 -34 47 -34 26 0
39 17 36 46 -3 25 1 29 24 32 15 2 47 -6 72 -16 65 -29 81 -65 81 -179 0 -83
-2 -95 -23 -115 -21 -22 -31 -23 -190 -26 -244 -5 -262 4 -262 136 0 77 -13
131 -38 162 -15 19 -19 19 -37 6 -19 -13 -20 -26 -20 -193 -1 -171 -6 -223
-25 -223 -23 0 -35 81 -35 246 0 219 -3 214 136 214 54 0 121 -5 149 -11z
m1180 -38 c0 -5 -16 -19 -35 -31 -36 -22 -52 -57 -41 -86 3 -9 12 -14 19 -11
6 3 19 8 28 12 43 17 67 -82 34 -144 -24 -48 -82 -56 -113 -16 -39 50 -40 210
0 260 15 20 28 25 64 25 24 0 44 -4 44 -9z m-2061 -27 c11 -14 24 -49 30 -77
12 -66 19 -177 11 -177 -4 0 -22 48 -40 108 l-33 107 -21 -97 c-12 -53 -24
-99 -27 -102 -10 -11 -19 147 -10 191 15 75 52 95 90 47z m506 -7 c59 -68 26
-289 -40 -263 -22 8 -34 46 -41 127 -4 39 -10 66 -14 62 -4 -4 -20 -45 -35
-90 -14 -46 -31 -83 -36 -83 -13 0 -11 217 2 243 18 34 30 38 88 34 43 -3 59
-9 76 -30z m1143 -98 c-3 -123 -4 -132 -27 -150 -17 -14 -39 -19 -80 -19 -84
0 -91 10 -48 61 21 23 60 87 87 141 28 54 56 98 61 98 7 0 9 -45 7 -131z m596
-189 c44 -17 29 -30 -34 -30 -45 0 -60 4 -60 14 0 25 49 33 94 16z m-2440 -26
c33 -33 11 -64 -45 -64 -50 0 -69 8 -69 30 0 40 83 65 114 34z m1269 -115 c95
-48 156 -132 164 -231 3 -31 9 -55 13 -53 4 3 20 65 36 139 15 74 30 134 31
132 2 -2 8 -70 13 -152 11 -176 28 -245 70 -276 34 -25 25 -38 -27 -38 -42 0
-81 18 -89 42 -12 38 -50 50 -177 59 -67 4 -130 11 -140 14 -24 10 -32 50 -17
98 17 60 37 87 76 103 21 9 36 23 40 39 12 48 -30 68 -92 45 -59 -23 -85 21
-43 74 26 33 82 35 142 5z m671 -106 c13 -172 52 -309 96 -340 29 -20 16 -33
-34 -33 -78 0 -81 9 -84 256 -3 223 10 291 22 117z m-1540 6 c22 -115 38 -328
29 -379 -12 -62 -34 -59 -52 5 -15 56 -21 421 -7 443 12 19 15 12 30 -69z
m1836 61 c28 -28 25 -56 -7 -72 -15 -7 -33 -24 -40 -38 -14 -28 -18 -160 -5
-160 5 0 22 29 37 65 15 36 32 64 38 62 15 -5 37 -85 37 -134 0 -39 -2 -42
-36 -53 -54 -18 -107 0 -125 43 -17 40 -18 179 -1 228 14 41 46 79 67 79 8 0
24 -9 35 -20z m-418 -21 c25 -34 39 -145 27 -218 -13 -83 -72 -127 -113 -85
-18 17 -15 38 15 122 24 65 25 118 3 126 -9 3 -33 6 -54 6 -57 0 -57 16 -3 50
58 37 97 37 125 -1z m-1668 -15 c19 -49 -7 -321 -33 -347 -25 -25 -28 296 -3
341 15 26 27 28 36 6z m558 -14 c33 -40 31 -216 -4 -257 -30 -37 -91 -39 -101
-4 -2 10 6 51 19 92 13 41 24 85 24 98 0 24 -25 61 -41 61 -4 0 -20 5 -36 12
l-28 11 30 8 c48 12 118 2 137 -21z m123 -133 c16 -107 44 -183 80 -217 32
-30 24 -40 -29 -40 -75 0 -80 13 -84 217 -2 96 0 183 4 192 6 11 9 6 12 -19 1
-19 9 -79 17 -133z m-529 97 c4 -26 4 -80 1 -120 -11 -120 -52 -192 -84 -148
-18 24 -16 149 2 211 15 50 48 103 65 103 5 0 12 -21 16 -46z m-317 -86 c15
-137 14 -252 -4 -294 -18 -43 -36 -40 -52 7 -16 46 -16 113 2 256 24 190 36
197 54 31z m1963 -444 c-1 -76 -10 -114 -23 -93 -10 16 -12 149 -3 174 13 32
26 -12 26 -81z m-142 56 c29 -15 43 -76 43 -181 0 -74 -4 -105 -19 -135 -17
-36 -22 -39 -59 -39 -36 0 -42 4 -58 35 -15 29 -18 55 -15 157 3 113 5 123 27
147 26 28 50 32 81 16z m-1119 -21 c31 -31 22 -69 -24 -95 l-38 -21 33 -9 c47
-14 72 -62 72 -138 0 -68 -13 -98 -50 -122 -20 -14 -30 -15 -50 -5 -38 17 -54
68 -54 174 0 103 19 186 51 218 24 24 34 24 60 -2z m1581 -6 c42 -38 50 -249
10 -302 -14 -20 -30 -27 -62 -29 -55 -4 -76 15 -91 87 -13 62 -6 199 11 232
22 40 93 46 132 12z m-2017 -27 c23 -10 37 -24 42 -43 13 -46 9 -255 -5 -280
-16 -30 -77 -47 -122 -36 -54 14 -70 55 -70 183 0 80 4 113 18 140 24 48 75
61 137 36z"/>
<path d="M5950 5713 c-38 -14 -60 -47 -60 -89 0 -83 45 -77 139 20 55 56 51
76 -16 75 -26 0 -55 -3 -63 -6z"/>
<path d="M6167 5703 c-11 -11 -8 -123 3 -123 14 0 30 44 30 79 0 29 -21 56
-33 44z"/>
<path d="M6166 5194 c-9 -24 -7 -117 4 -134 7 -11 11 -9 19 13 13 32 14 61 5
106 -7 34 -18 40 -28 15z"/>
<path d="M6585 4611 c-7 -35 4 -103 16 -96 16 10 28 76 19 101 -13 32 -27 30
-35 -5z"/>
<path d="M7017 4588 c-7 -49 1 -118 13 -118 23 0 28 115 7 145 -13 16 -14 14
-20 -27z"/>
<path d="M4999 4628 c-24 -45 -23 -238 1 -238 27 0 62 197 44 244 -9 23 -31
20 -45 -6z"/>
<path d="M5039 8243 c-16 -40 0 -97 28 -101 23 -3 53 30 53 59 0 22 -38 69
-56 69 -8 0 -19 -12 -25 -27z"/>
<path d="M5695 7604 c-89 -37 -206 -63 -334 -74 -124 -11 -137 -15 -121 -35
17 -21 2 -42 -63 -84 -151 -98 -477 -233 -599 -247 -74 -9 -189 9 -373 56
-227 59 -453 87 -495 60 -23 -14 11 -43 105 -90 384 -187 777 -232 1025 -118
100 46 195 76 263 84 94 10 156 38 293 130 69 46 134 84 145 84 12 0 45 25 77
58 67 67 167 202 149 201 -6 0 -39 -12 -72 -25z"/>
<path d="M6010 7359 c-41 -5 -118 -18 -170 -30 -78 -18 -100 -27 -127 -54 -25
-25 -33 -42 -33 -69 0 -47 13 -46 33 4 8 22 20 40 25 40 6 0 25 -18 42 -40 37
-47 50 -50 50 -12 0 64 48 95 170 112 101 14 162 36 140 50 -17 11 -25 11
-130 -1z"/>
<path d="M3322 5821 c-22 -13 -41 -97 -53 -234 -14 -154 -6 -919 11 -1087 29
-296 54 -343 82 -161 18 119 18 724 0 842 -15 96 -17 100 -53 116 -14 6 -29
21 -32 33 -13 51 100 61 766 67 l567 5 -2 212 -3 211 -151 -1 c-135 -2 -166
-5 -280 -34 -150 -37 -214 -61 -469 -168 -223 -94 -291 -119 -301 -110 -11 12
-23 89 -24 151 0 103 -28 177 -58 158z"/>
<path d="M7627 5343 c-24 -23 4 -214 41 -275 16 -28 56 -47 69 -34 6 5 31 193
32 236 1 12 -1 12 -8 1 -14 -21 -46 -4 -75 39 -25 38 -44 49 -59 33z"/>
<path d="M4345 5315 c-3 -8 -7 -22 -10 -31 -4 -12 -17 -15 -62 -12 -88 5 -88
3 -85 -327 1 -148 6 -380 11 -515 5 -135 7 -248 4 -252 -2 -5 -159 -8 -348 -8
-366 0 -434 -6 -460 -43 -22 -31 -19 -109 4 -138 l19 -23 93 17 c128 24 358
36 699 37 299 1 350 6 383 39 18 17 19 23 7 51 -15 36 -47 60 -114 84 -68 26
-85 67 -92 223 -9 192 -44 275 -93 222 -11 -12 -25 -34 -31 -50 -16 -39 -30
-27 -30 25 0 52 27 82 85 91 80 13 86 15 100 48 31 74 27 387 -5 508 -16 59
-63 93 -75 54z m41 -298 c-16 -107 -109 -134 -136 -39 -11 42 -12 157 -2 217
7 36 10 26 30 -95 13 -74 24 -136 26 -138 3 -2 19 61 38 140 l33 143 9 -92 c5
-50 6 -111 2 -136z"/>
<path d="M8001 5311 c-29 -29 -33 -71 -29 -258 4 -198 18 -243 87 -289 46 -30
51 -45 19 -59 -41 -18 -59 -71 -56 -157 5 -126 39 -131 95 -17 40 82 104 298
106 361 1 26 -3 52 -10 59 -7 7 -43 16 -80 21 -37 4 -73 14 -81 22 -23 22 -31
93 -24 206 l5 105 23 -85 c13 -47 28 -105 34 -129 7 -25 15 -40 20 -35 5 5 12
51 16 102 4 51 10 89 14 85 4 -4 19 -46 33 -93 38 -122 43 -125 52 -26 6 76 4
115 -11 167 -7 26 -50 39 -124 39 -56 0 -74 -4 -89 -19z"/>
<path d="M3531 5273 c-35 -30 -41 -105 -41 -513 0 -392 6 -478 37 -512 23 -26
162 -26 186 0 32 35 37 104 37 512 0 408 -5 477 -37 512 -23 26 -152 26 -182
1z m108 -119 c7 5 17 20 22 34 10 25 11 26 21 8 17 -29 15 -196 -2 -230 -21
-41 -43 -52 -77 -40 -44 15 -58 56 -58 164 0 52 4 104 8 115 7 18 11 16 41
-19 21 -25 37 -37 45 -32z m29 -472 c37 -47 43 -245 9 -308 -29 -56 -93 -52
-118 8 -19 45 -19 231 0 276 22 52 77 64 109 24z"/>
<path d="M3607 4568 c-3 -29 -2 -73 2 -98 l8 -45 11 28 c19 45 13 167 -8 167
-4 0 -10 -24 -13 -52z"/>
<path d="M3843 5270 c-30 -12 -37 -46 -29 -148 17 -208 58 -362 112 -422 l34
-38 -25 -16 c-34 -22 -55 -99 -62 -227 -9 -163 4 -189 90 -189 71 1 137 31
137 63 0 28 -16 37 -65 37 -19 0 -45 4 -59 10 -38 14 -34 50 25 246 27 93 53
199 56 235 5 61 4 67 -18 83 -14 9 -43 16 -72 16 -38 0 -53 5 -72 25 -24 23
-25 29 -25 166 0 78 2 140 4 138 2 -2 12 -33 21 -69 33 -129 47 -170 56 -165
5 4 9 19 9 34 0 45 29 128 55 159 48 57 29 72 -85 71 -36 0 -75 -4 -87 -9z"/>
<path d="M4577 5040 c-9 -148 -9 -357 0 -496 l8 -109 6 70 c8 92 8 502 0 585
-6 64 -6 63 -14 -50z"/>
<path d="M8071 4377 c-50 -18 -61 -41 -33 -69 19 -19 33 -23 86 -23 65 0 106
20 106 51 0 36 -101 63 -159 41z"/>
<path d="M6365 4210 c-60 -19 -71 -65 -26 -111 24 -24 38 -29 76 -29 74 0 115
29 115 81 0 10 2 19 4 19 2 0 24 -20 48 -45 36 -35 53 -45 78 -45 26 0 42 9
77 45 23 25 45 45 47 45 3 0 6 -12 8 -27 2 -14 15 -35 31 -47 25 -19 42 -21
147 -21 105 0 122 2 147 21 59 44 19 82 -107 104 -84 15 -605 23 -645 10z"/>
<path d="M6026 4184 c-96 -19 -161 -42 -181 -64 -16 -17 -15 -19 6 -31 32 -17
163 -5 283 25 106 27 144 49 125 73 -15 17 -140 16 -233 -3z"/>
<path d="M5976 3782 c-53 -18 -78 -44 -60 -62 20 -20 127 -32 189 -21 77 14
109 35 95 61 -21 40 -139 52 -224 22z"/>
<path d="M5922 3625 c-81 -22 -193 -82 -289 -154 -182 -136 -210 -182 -129
-209 49 -16 98 -2 114 33 19 42 89 110 165 163 79 54 156 96 164 89 2 -3 -32
-36 -76 -74 -45 -37 -81 -74 -81 -80 0 -9 20 -13 68 -13 75 0 119 20 148 67
31 50 67 83 90 83 31 0 36 -11 18 -46 -42 -82 -155 -150 -266 -160 -126 -12
-167 -40 -154 -109 13 -65 69 -66 112 0 19 29 100 63 115 48 7 -7 -2 -20 -28
-42 -20 -17 -41 -31 -45 -31 -5 0 -8 -7 -8 -15 0 -10 10 -15 31 -15 60 0 112
43 170 141 51 88 73 102 148 93 57 -6 59 -6 94 30 43 43 73 56 128 56 53 0 50
-16 -14 -77 -56 -53 -104 -83 -134 -83 -27 0 -83 -38 -83 -56 0 -14 10 -16 86
-9 l86 7 -7 -40 c-5 -34 -3 -42 14 -51 45 -24 130 -8 194 36 l41 28 155 -3
155 -3 -19 22 c-24 25 -274 191 -370 245 -184 103 -316 144 -454 143 -47 0
-110 -7 -139 -14z"/>
<path d="M7190 3557 c0 -51 107 -156 180 -177 62 -18 43 35 -42 116 -90 87
-138 108 -138 61z"/>
<path d="M9442 8058 c-26 -13 -37 -46 -28 -83 6 -24 5 -25 -51 -25 -59 0 -118
-21 -173 -60 l-28 -20 -14 22 c-14 21 -18 21 -57 10 l-42 -13 27 -50 c15 -27
31 -49 36 -49 16 0 51 22 115 71 66 50 113 69 175 69 36 0 39 -3 68 -60 16
-33 30 -73 30 -89 0 -41 -50 -82 -181 -144 -60 -29 -107 -56 -106 -61 10 -33
37 -25 172 47 77 42 156 88 175 104 48 41 45 81 -14 198 -26 51 -45 102 -44
116 3 28 -22 35 -60 17z"/>
<path d="M2518 7993 c-14 -15 -45 -63 -68 -106 -27 -50 -51 -82 -66 -87 -17
-7 -22 -14 -17 -27 16 -47 89 -60 117 -20 15 21 16 21 27 3 29 -48 85 -97 140
-122 56 -26 72 -45 49 -59 -5 -3 -10 -9 -10 -13 0 -7 62 -52 71 -52 3 0 16 23
29 50 23 48 23 51 5 64 -10 7 -50 23 -89 36 -99 31 -119 43 -161 94 l-37 45
33 62 c44 82 67 96 128 80 25 -7 93 -39 150 -72 67 -39 108 -56 114 -50 20 20
-6 41 -149 117 -177 93 -223 103 -266 57z"/>
<path d="M2182 7218 c-5 -7 -17 -30 -25 -50 -9 -21 -21 -38 -26 -38 -23 0 -9
-30 19 -45 41 -21 64 -12 98 38 27 41 30 42 80 41 101 -3 162 -61 162 -154 0
-39 20 -66 54 -72 16 -2 22 7 33 47 l13 50 -56 51 c-63 57 -59 67 23 58 50 -5
80 6 69 25 -5 7 -50 11 -128 11 -103 0 -130 4 -190 25 -77 28 -111 31 -126 13z"/>
<path d="M9935 6495 c-16 -15 -25 -36 -25 -54 0 -34 -10 -39 -90 -43 -48 -3
-63 -18 -135 -135 l-30 -48 -9 117 -9 118 -36 10 c-20 5 -40 10 -45 10 -8 0
-3 -120 10 -251 5 -48 10 -58 34 -73 45 -26 78 -21 98 15 36 67 55 82 104 82
25 -1 64 -11 87 -22 36 -19 40 -25 35 -46 -6 -23 -4 -25 33 -25 45 0 63 14 63
50 0 14 7 36 16 49 20 28 7 41 -43 41 -31 0 -36 -5 -69 -58 -1 -2 -17 6 -35
16 -19 11 -51 25 -71 32 -21 6 -38 15 -38 19 0 4 13 22 28 41 27 32 33 34 107
39 l79 6 8 35 c5 19 13 44 19 54 9 16 8 22 -7 33 -27 19 -52 16 -79 -12z"/>
<path d="M9541 5579 c-12 -94 -20 -173 -18 -175 1 -2 19 -10 39 -18 39 -17 48
-10 48 35 0 18 2 18 24 4 32 -21 74 -32 167 -45 133 -18 171 10 190 145 8 56
17 85 30 97 10 9 19 21 19 27 0 15 -35 31 -69 31 -42 0 -57 -28 -70 -133 -15
-108 -17 -116 -48 -123 -38 -10 -164 2 -204 18 l-36 16 13 98 c7 55 15 113 18
131 4 29 1 33 -35 47 -22 9 -41 16 -43 16 -1 0 -13 -77 -25 -171z"/>
<path d="M9420 5000 c0 -22 24 -59 46 -69 13 -5 65 -20 116 -32 76 -18 99 -28
126 -55 l32 -32 -18 -49 c-11 -26 -27 -72 -37 -101 l-17 -54 -32 30 c-41 40
-82 59 -185 89 -47 14 -92 29 -98 35 -21 17 -16 -36 5 -54 22 -20 38 -25 144
-48 76 -17 96 -25 135 -60 48 -42 91 -52 112 -26 6 7 27 58 45 112 45 133 45
131 67 137 26 7 24 32 -3 51 -32 23 -66 20 -92 -9 l-23 -24 -22 29 c-26 36
-69 58 -181 95 -47 15 -89 31 -94 36 -13 12 -26 11 -26 -1z"/>
<path d="M2465 4930 c-11 -5 -73 -9 -138 -9 -65 -1 -127 -6 -138 -11 -14 -8
-19 -21 -19 -51 0 -22 -4 -49 -10 -59 -13 -25 13 -34 57 -19 33 10 39 21 45
79 l3 25 125 -3 c122 -3 170 -14 113 -25 -39 -8 -81 -52 -89 -93 -6 -34 -53
-84 -79 -84 -7 0 -15 9 -18 21 -4 16 -10 19 -29 14 -38 -12 -47 -27 -49 -90
l-2 -60 32 2 c40 1 58 16 66 54 5 22 16 33 43 45 51 21 71 41 99 101 21 45 55
74 69 61 2 -2 21 -36 42 -74 38 -69 38 -69 77 -66 22 2 41 5 43 7 2 2 -22 52
-54 110 -61 111 -86 136 -141 134 -15 0 -37 -4 -48 -9z"/>
<path d="M9101 4260 c-88 -150 -80 -201 48 -287 85 -56 165 -86 214 -80 49 7
57 14 107 98 37 63 49 74 73 70 19 -3 0 43 -25 62 -43 32 -67 18 -123 -75 -27
-45 -61 -89 -76 -97 -23 -13 -31 -11 -87 14 -35 15 -76 44 -93 63 -39 45 -35
67 30 176 l50 81 -23 29 c-13 17 -27 31 -32 33 -5 2 -34 -37 -63 -87z"/>
<path d="M2770 4274 c-159 -94 -227 -142 -239 -171 -15 -37 -3 -76 54 -172 26
-46 44 -88 43 -102 -2 -19 2 -25 24 -27 32 -4 68 28 68 59 0 12 -23 61 -51
110 -28 49 -51 101 -51 115 0 40 53 86 173 151 60 32 109 61 109 65 0 4 -8 12
-19 17 -15 8 -37 -1 -111 -45z"/>
<path d="M3246 3708 c-42 -21 -44 -28 -16 -53 20 -18 20 -19 -23 -39 -96 -47
-197 -153 -197 -208 0 -38 13 -62 71 -130 31 -36 49 -66 49 -82 0 -20 5 -26
23 -26 13 0 33 9 45 20 38 35 28 65 -48 151 -38 44 -70 88 -70 99 0 30 60 100
123 143 l59 40 90 -97 c49 -53 93 -96 96 -96 4 0 22 9 41 21 l33 20 -53 57
c-29 31 -83 89 -120 128 l-66 71 -37 -19z"/>
<path d="M3785 3176 c-13 -13 -38 -52 -55 -87 -43 -85 -74 -125 -121 -154 -46
-29 -59 -67 -34 -94 9 -11 57 -48 106 -83 68 -47 92 -70 96 -90 3 -16 9 -28
13 -28 15 0 59 41 65 61 10 32 -16 61 -130 142 l-107 76 39 19 c46 24 66 45
130 142 28 42 58 82 67 89 9 7 13 17 10 22 -10 17 -55 9 -79 -15z"/>
<path d="M8142 3168 c-29 -29 -14 -71 58 -158 68 -82 95 -136 83 -166 -3 -8
-44 -42 -92 -75 l-86 -60 -6 44 c-9 56 -28 93 -95 182 -30 40 -54 77 -54 84 0
29 -25 1 -28 -31 -3 -31 5 -45 72 -123 54 -62 77 -99 82 -124 14 -87 44 -122
87 -100 12 7 62 39 110 71 64 43 96 58 115 56 22 -2 28 2 30 20 2 13 -4 35
-13 49 -15 22 -22 25 -59 21 l-41 -5 -1 41 c-1 50 -20 89 -85 177 -27 36 -52
75 -56 88 -7 17 -11 19 -21 9z"/>
<path d="M4008 3038 c-9 -7 -28 -32 -42 -55 -14 -23 -37 -50 -51 -59 -14 -9
-25 -20 -25 -25 0 -17 50 -21 74 -6 28 19 117 143 108 151 -10 10 -48 6 -64
-6z"/>
<path d="M7242 2688 c-19 -19 -15 -39 43 -178 101 -243 110 -249 277 -185 62
24 101 34 119 30 33 -7 45 17 29 59 -19 51 -46 52 -164 5 -100 -40 -110 -42
-133 -29 -40 23 -60 56 -108 185 -25 65 -47 120 -49 122 -1 1 -8 -3 -14 -9z"/>
<path d="M5213 2550 c-23 -9 -21 -2 -69 -252 -31 -162 -30 -164 30 -195 17 -8
38 -24 46 -34 14 -18 17 -18 38 -4 27 20 29 68 4 93 -11 9 -33 25 -51 34 -17
10 -34 25 -38 34 -3 9 11 86 31 171 21 85 36 156 34 158 -2 1 -13 -1 -25 -5z"/>
<path d="M6728 2539 c-113 -24 -146 -41 -165 -87 -19 -46 -12 -150 16 -242 39
-127 74 -148 201 -124 59 11 85 13 93 5 17 -17 27 -13 37 14 11 29 -5 85 -25
85 -23 0 -25 16 -9 64 27 79 -3 160 -45 122 -11 -10 -31 -15 -52 -14 -25 2
-34 -1 -37 -15 -5 -24 25 -57 52 -57 12 0 27 -4 35 -9 15 -10 18 -68 3 -83
-13 -13 -144 -35 -172 -28 -32 7 -60 62 -67 134 -11 107 6 124 156 150 46 9
85 17 86 18 1 2 5 22 8 46 6 49 11 48 -115 21z"/>
<path d="M5761 2467 c-16 -21 -26 -322 -12 -374 16 -59 46 -72 174 -80 68 -4
108 -11 119 -20 20 -18 36 -10 48 23 14 37 -4 73 -40 80 -16 4 -30 9 -30 13 0
3 11 28 25 55 21 41 25 64 25 133 l0 83 30 0 c25 0 30 4 30 24 0 13 3 31 6 40
5 14 -3 16 -56 16 l-63 0 8 -87 c13 -132 11 -163 -12 -215 l-22 -48 -76 0
c-66 0 -79 3 -99 23 -31 31 -38 90 -28 235 7 112 2 133 -27 99z"/>
<path d="M8436 10131 c-3 -4 3 -16 14 -26 11 -10 20 -25 20 -34 0 -18 -192
-311 -221 -337 -16 -14 -24 -15 -45 -6 -30 15 -34 15 -34 2 0 -14 162 -120
172 -113 5 3 0 15 -11 27 -12 12 -21 28 -21 36 0 14 180 292 213 328 11 12 24
22 27 22 4 0 42 -22 84 -50 50 -33 76 -56 76 -68 0 -19 -176 -300 -211 -336
-16 -17 -22 -18 -45 -7 -17 7 -31 8 -36 3 -6 -6 23 -31 77 -66 47 -31 88 -56
90 -56 13 0 3 27 -15 43 -12 10 -17 23 -13 34 13 36 213 334 228 340 9 3 27 1
40 -5 14 -6 27 -7 30 -2 4 7 -395 280 -410 280 -2 0 -6 -4 -9 -9z"/>
<path d="M3500 10074 c-77 -53 -87 -68 -36 -59 25 5 42 3 53 -6 19 -17 184
-261 179 -267 -2 -2 -109 31 -236 72 l-233 75 -44 -30 c-47 -33 -49 -52 -5
-43 19 4 35 0 49 -13 31 -27 213 -302 213 -323 0 -10 -7 -23 -15 -30 -14 -12
-21 -40 -10 -40 14 0 140 93 140 103 0 7 -7 10 -15 8 -55 -15 -61 -10 -154
126 -49 73 -87 135 -84 138 3 3 105 -26 227 -65 221 -70 255 -78 265 -62 3 5
-51 92 -119 195 -69 102 -125 192 -125 200 0 8 9 22 20 32 18 16 19 36 2 34
-4 0 -36 -20 -72 -45z"/>
<path d="M8967 9764 c-3 -4 2 -18 13 -31 25 -32 23 -36 -105 -193 -135 -165
-138 -167 -177 -152 -33 12 -44 10 -34 -6 11 -18 143 -122 155 -122 16 0 14
15 -4 30 -30 25 -14 56 111 208 119 145 151 172 169 142 8 -13 35 -13 35 -1 0
9 -143 131 -153 131 -2 0 -7 -3 -10 -6z"/>
<path d="M2940 9662 c-60 -53 -80 -80 -55 -75 6 1 22 5 36 9 23 5 37 -8 150
-141 68 -81 128 -154 133 -162 5 -10 1 -25 -13 -44 -33 -44 -6 -46 42 -2 23
21 57 50 75 65 39 32 35 54 -5 33 -22 -12 -31 -12 -45 -2 -34 24 -258 298
-258 316 0 10 7 24 15 31 8 7 15 16 15 21 0 20 -29 5 -90 -49z"/>
<path d="M9244 9498 c0 -24 -8 -95 -18 -159 l-18 -117 -67 -6 c-36 -3 -105 -9
-153 -12 -49 -4 -88 -10 -88 -13 0 -3 60 -67 134 -140 l134 -134 51 37 c54 40
67 63 29 52 -13 -4 -41 -10 -63 -12 -39 -5 -42 -4 -130 85 l-90 91 91 0 c50 0
118 3 151 6 l61 7 12 111 c18 174 13 167 77 104 30 -29 63 -68 75 -86 19 -31
20 -36 5 -73 -19 -47 -4 -64 25 -28 59 74 66 56 -78 200 -71 71 -131 129 -135
129 -3 0 -6 -19 -5 -42z"/>
<path d="M2629 9372 c-136 -141 -163 -172 -156 -178 3 -4 18 1 31 10 14 9 28
16 31 16 13 0 294 -273 300 -291 4 -13 0 -27 -10 -39 -9 -10 -14 -24 -10 -30
9 -14 30 6 167 152 l100 108 -32 50 c-18 27 -38 50 -46 50 -17 0 -17 0 2 -45
22 -53 11 -84 -50 -144 -63 -62 -61 -63 -154 32 l-63 64 46 42 c28 25 52 40
61 37 8 -3 21 -9 29 -12 30 -12 14 19 -32 61 -51 46 -69 49 -51 10 11 -25 -5
-58 -51 -99 l-22 -20 -67 67 -67 67 50 51 c45 45 54 50 85 46 19 -2 43 -7 53
-11 35 -16 17 21 -26 52 l-44 31 -74 -77z"/>
<path d="M9618 9094 c-55 -28 -64 -50 -17 -40 40 8 87 -15 116 -56 20 -28 21
-35 10 -53 -22 -32 -299 -245 -321 -245 -11 0 -30 9 -42 21 -47 44 -29 0 33
-81 68 -90 91 -110 79 -69 -18 57 -17 64 6 86 67 62 286 223 304 223 46 0 81
-75 58 -128 -19 -47 1 -50 46 -7 l38 37 -98 123 c-53 67 -112 143 -129 169
-18 25 -33 46 -34 46 -1 -1 -23 -12 -49 -26z"/>
<path d="M2263 8953 c-135 -176 -148 -193 -145 -200 1 -3 74 -5 162 -4 88 1
160 -1 160 -6 0 -34 60 -288 68 -288 5 0 60 67 122 149 l112 148 -45 45 c-51
51 -78 51 -47 0 32 -53 26 -75 -52 -180 -40 -53 -73 -95 -74 -94 -1 1 -12 56
-23 122 -12 66 -23 130 -26 142 -5 22 -10 23 -142 25 l-137 3 65 80 c59 73 68
80 99 79 19 0 44 -2 54 -5 37 -8 26 19 -18 45 -24 14 -49 26 -55 26 -5 0 -40
-39 -78 -87z"/>
<path d="M10007 8643 c-4 -3 -5 -21 -1 -38 4 -22 1 -35 -13 -46 -29 -26 -325
-199 -339 -199 -7 0 -22 9 -33 21 -11 12 -24 18 -29 15 -6 -3 32 -76 84 -164
70 -116 99 -156 112 -154 42 7 112 37 109 47 -2 5 -21 8 -41 7 -59 -6 -92 14
-131 78 -19 32 -35 64 -35 73 0 17 167 120 181 111 14 -8 49 -81 49 -102 0
-10 -5 -23 -11 -29 -6 -6 -10 -16 -8 -22 5 -13 110 48 117 68 3 10 -3 11 -25
7 -28 -6 -33 -3 -62 43 -18 28 -30 54 -27 59 12 19 130 83 149 80 11 -2 31
-26 50 -60 l32 -58 -23 -41 c-32 -56 -16 -65 36 -21 l43 37 -81 135 c-45 74
-85 141 -89 148 -4 7 -10 9 -14 5z"/>
<path d="M1983 8499 c-82 -40 -132 -126 -133 -225 0 -166 155 -263 305 -189
31 15 63 24 71 21 13 -5 13 -11 -7 -43 -33 -56 -50 -73 -72 -73 -27 0 -6 -25
33 -39 29 -10 31 -9 70 59 22 38 40 73 40 79 0 6 -19 20 -42 32 -36 18 -47 20
-78 10 -91 -27 -179 -2 -244 69 -62 69 -58 155 9 220 34 33 40 35 104 35 58 0
75 -4 117 -30 57 -36 90 -80 99 -135 6 -33 15 -46 50 -70 49 -34 44 -36 98 57
33 57 34 62 19 76 -40 34 -97 48 -64 15 18 -18 15 -35 -14 -83 -34 -58 -54
-51 -54 19 -1 160 -166 265 -307 195z"/>
<path d="M10274 8123 l1 -38 -145 -72 c-80 -40 -165 -80 -189 -89 l-44 -18
-23 27 c-49 57 -46 21 8 -87 43 -86 64 -102 52 -40 l-6 34 168 81 c215 104
218 105 243 72 41 -51 39 -11 -2 77 -45 96 -65 113 -63 53z"/>
<path d="M1653 7933 c-33 -84 -32 -112 1 -70 12 15 31 27 41 27 25 0 305 -109
305 -119 0 -4 -105 -38 -234 -75 l-234 -68 -16 -42 c-26 -69 -21 -80 21 -46
14 11 31 20 38 20 22 0 345 -131 360 -146 10 -10 12 -25 8 -46 -11 -55 19 -27
49 48 39 96 36 122 -8 67 l-21 -27 -104 38 c-164 61 -216 86 -199 95 8 5 107
36 220 70 113 34 215 66 228 71 48 21 23 37 -175 115 -109 43 -206 85 -216 94
-13 11 -17 24 -13 43 4 19 1 28 -8 28 -7 0 -27 -35 -43 -77z"/>
<path d="M10478 7543 c-47 -5 -54 -33 -9 -33 20 0 37 -9 55 -30 29 -35 44 -96
28 -112 -11 -11 -365 -118 -390 -118 -7 0 -21 13 -30 30 -17 30 -32 39 -32 20
0 -32 56 -200 66 -200 9 0 11 10 7 34 -4 28 -1 36 17 46 25 13 355 110 376
110 21 0 44 -42 44 -83 0 -28 -7 -44 -25 -61 -29 -27 -34 -52 -7 -41 9 4 31
12 47 17 17 6 34 14 38 18 4 4 -6 48 -22 99 -17 51 -43 142 -58 202 -24 95
-30 109 -48 107 -11 -1 -37 -3 -57 -5z"/>
<path d="M1445 7358 c-2 -7 -20 -76 -40 -153 -19 -77 -38 -150 -41 -162 -4
-16 -2 -23 7 -23 8 0 19 10 24 23 15 34 46 32 222 -12 217 -55 213 -53 213
-96 0 -19 4 -35 10 -35 9 0 13 13 40 120 6 25 13 53 16 63 8 27 -21 21 -34 -8
-16 -34 -32 -32 -247 23 l-180 47 1 30 c2 45 23 112 39 129 8 8 33 17 55 21
47 8 52 21 10 29 -16 3 -44 9 -60 12 -20 4 -32 1 -35 -8z"/>
<path d="M10689 6963 c-1 -5 -2 -12 -4 -18 -1 -5 -3 -17 -3 -26 -1 -9 -8 -19
-16 -22 -30 -12 -386 -59 -401 -53 -8 3 -20 17 -25 31 -10 26 -30 35 -30 13 2
-55 28 -182 38 -186 7 -2 12 6 12 21 0 13 6 30 14 36 11 10 163 41 197 41 5 0
39 -216 39 -251 0 -12 -21 -18 -97 -28 -95 -13 -98 -12 -114 8 -10 12 -19 27
-22 34 -2 6 -8 9 -12 5 -10 -10 18 -203 30 -201 6 1 11 15 13 30 2 15 7 31 11
36 9 9 323 57 379 57 39 0 45 -3 55 -30 13 -35 27 -39 27 -7 0 64 -24 187 -37
187 -8 0 -13 -11 -13 -30 0 -18 -7 -33 -17 -39 -26 -13 -156 -32 -164 -23 -8
9 -42 253 -36 258 2 3 44 6 93 7 88 2 88 2 102 -26 20 -41 32 -20 22 38 -5 28
-11 71 -15 98 -3 26 -10 47 -16 47 -5 0 -10 -3 -10 -7z"/>
<path d="M1280 6528 c0 -29 -3 -70 -6 -90 -5 -31 -4 -38 10 -38 9 0 16 8 16
20 0 40 35 49 165 40 66 -5 137 -9 158 -9 20 -1 37 -4 37 -8 0 -6 -318 -228
-389 -272 -5 -3 -12 -32 -16 -63 -6 -50 -5 -58 9 -58 9 0 16 6 16 13 0 8 9 22
20 32 19 17 32 18 212 7 203 -12 218 -16 218 -64 0 -10 7 -18 15 -18 12 0 15
16 15 80 0 44 0 83 1 87 2 21 -18 8 -31 -20 l-15 -32 -105 2 c-58 2 -134 6
-169 9 -53 5 -61 8 -50 19 8 7 93 68 189 135 196 137 219 155 204 170 -5 5
-107 15 -226 23 -228 14 -248 19 -248 63 0 15 -6 24 -15 24 -11 0 -15 -13 -15
-52z"/>
<path d="M10290 6169 c0 -68 3 -90 13 -87 6 3 14 13 16 24 7 42 17 44 188 44
149 0 164 -2 153 -16 -8 -8 -91 -76 -185 -149 -95 -74 -178 -141 -185 -149
-26 -32 -1 -36 216 -36 121 0 223 -4 234 -10 10 -5 21 -21 24 -35 12 -48 26
-25 28 45 1 39 2 78 2 87 2 30 -20 24 -29 -9 l-10 -33 -175 -3 c-155 -2 -173
-1 -160 12 8 9 96 77 195 153 l180 139 3 48 c4 61 -11 79 -32 38 -8 -16 -23
-32 -31 -36 -21 -8 -353 -8 -383 0 -15 4 -25 17 -29 35 -3 16 -12 29 -19 29
-11 0 -14 -20 -14 -91z"/>
<path d="M1737 5913 c-4 -3 -7 -16 -7 -28 0 -13 -6 -27 -13 -33 -12 -10 -303
-42 -382 -42 -32 0 -38 4 -48 30 -12 32 -42 43 -33 13 2 -10 8 -55 11 -100 5
-61 11 -83 21 -83 9 0 14 11 14 29 0 35 11 40 110 48 l76 6 12 -129 c6 -70 9
-130 6 -133 -2 -2 -43 -7 -90 -9 l-85 -5 -12 32 c-12 32 -42 45 -33 14 2 -10
7 -58 11 -106 5 -60 11 -87 18 -84 7 2 13 15 15 30 2 14 9 30 15 35 11 9 321
42 392 42 20 0 28 -7 36 -30 20 -57 32 -34 25 47 -3 42 -6 87 -6 100 0 14 -6
23 -15 23 -9 0 -15 -9 -15 -24 0 -13 -6 -29 -13 -35 -12 -9 -197 -35 -203 -28
-4 4 -25 259 -21 263 2 2 49 7 105 10 l103 7 11 -31 c22 -58 31 -34 23 66 -7
94 -14 120 -28 105z"/>
<path d="M10245 5358 c-33 -148 -33 -148 -19 -148 8 0 14 4 14 8 0 5 6 17 14
27 13 18 16 17 80 -24 54 -35 65 -47 61 -65 -3 -11 -11 -50 -19 -85 -8 -35
-19 -67 -23 -71 -4 -5 -41 -11 -80 -15 l-73 -7 0 37 c0 64 -23 34 -42 -56 -21
-98 -17 -129 12 -82 22 37 15 35 275 68 257 33 245 29 237 59 -5 17 -62 63
-187 151 -195 137 -225 163 -225 201 0 30 -18 32 -25 2z m280 -265 c47 -31 83
-59 79 -62 -7 -7 -197 -31 -203 -25 -4 4 19 123 26 137 6 11 8 10 98 -50z"/>
<path d="M1373 5177 c-17 -7 -34 -15 -37 -18 -3 -3 1 -30 10 -60 9 -30 31
-121 49 -204 17 -82 35 -149 38 -147 4 1 30 2 57 2 38 0 50 4 50 15 0 9 -9 15
-25 15 -14 0 -37 11 -50 24 -27 27 -43 91 -28 115 10 17 264 85 361 97 52 7
53 7 65 -25 6 -17 18 -31 25 -31 8 0 12 6 9 13 -2 6 -15 56 -27 110 -14 60
-27 96 -34 94 -6 -2 -10 -17 -8 -34 2 -16 -3 -35 -11 -41 -16 -13 -339 -92
-377 -92 -37 0 -50 18 -50 70 0 37 5 52 25 70 43 40 25 51 -42 27z"/>
<path d="M10073 4677 c-18 -52 -33 -99 -33 -105 0 -21 15 -13 32 18 10 18 25
30 37 30 17 0 149 -45 158 -53 1 -2 -6 -27 -17 -55 -25 -65 -25 -107 -1 -152
41 -79 139 -105 200 -54 40 33 46 46 92 179 37 107 39 153 5 101 -9 -15 -25
-26 -36 -26 -21 0 -330 109 -370 130 -18 10 -21 18 -17 46 11 68 -18 34 -50
-59z m390 -179 c34 -13 43 -45 24 -91 -29 -68 -79 -81 -163 -41 -63 30 -76 90
-38 166 l14 27 68 -25 c37 -13 79 -30 95 -36z"/>
<path d="M2029 4493 c-1 -5 0 -22 1 -39 1 -35 14 -28 -209 -120 -85 -35 -162
-64 -172 -64 -10 0 -26 11 -35 26 -35 52 -33 5 3 -84 38 -91 61 -114 55 -54
-3 23 2 34 20 46 31 20 343 146 362 146 9 0 23 -11 32 -26 10 -15 21 -21 26
-16 10 10 -60 192 -74 192 -4 0 -8 -3 -9 -7z"/>
<path d="M9858 4155 l-83 -167 44 -39 c24 -21 50 -39 57 -39 19 0 18 3 -11 46
-14 20 -25 50 -25 66 0 38 56 148 75 148 12 0 170 -73 183 -85 5 -4 -20 -58
-41 -88 -15 -22 -25 -27 -43 -23 -12 3 -25 2 -29 -4 -8 -14 115 -74 127 -62 7
7 3 14 -11 21 -27 15 -26 24 4 89 l24 53 81 -41 c54 -27 80 -46 80 -58 0 -9
-14 -41 -30 -69 -31 -53 -55 -68 -100 -61 -43 6 -31 -20 16 -36 26 -9 51 -16
56 -16 7 0 158 291 158 305 0 13 -27 3 -38 -15 -7 -11 -22 -20 -35 -20 -12 1
-98 40 -192 88 l-170 87 0 37 c0 20 -3 39 -7 43 -4 4 -44 -68 -90 -160z"/>
<path d="M2148 4204 c-3 -3 -2 -18 2 -34 6 -22 4 -32 -8 -43 -31 -27 -330
-187 -350 -187 -10 0 -27 9 -37 20 -40 44 -33 -1 12 -81 25 -46 48 -86 49 -88
2 -1 7 0 13 3 7 5 7 15 -1 31 -9 20 -8 28 6 44 25 28 136 85 146 75 22 -24
120 -216 115 -224 -12 -19 -146 -81 -158 -73 -7 4 -18 15 -26 26 -8 12 -17 15
-23 9 -6 -6 8 -40 37 -93 53 -97 51 -93 64 -85 7 5 7 15 -1 31 -8 18 -8 28 1
39 17 21 320 186 352 193 20 4 30 -1 43 -18 10 -15 19 -20 25 -14 12 13 -88
190 -101 177 -5 -5 -5 -19 1 -34 8 -21 6 -29 -12 -45 -19 -17 -151 -93 -162
-93 -4 0 -125 221 -125 229 0 11 158 91 179 91 11 0 27 -9 35 -21 8 -12 19
-18 25 -15 7 5 -4 35 -31 84 -45 83 -61 106 -70 96z"/>
<path d="M9583 3675 c-60 -92 -70 -131 -19 -80 17 17 31 23 43 18 10 -4 89
-54 176 -111 175 -115 183 -127 128 -183 -23 -22 -39 -29 -69 -29 -57 0 -58
-10 -1 -42 28 -16 52 -28 53 -26 1 2 35 55 74 118 40 63 92 142 117 176 l44
61 -45 37 c-50 42 -67 41 -41 -3 9 -16 17 -37 17 -47 0 -27 -49 -104 -67 -104
-32 0 -339 199 -350 226 -3 8 0 27 6 41 7 14 8 30 4 34 -5 5 -36 -34 -70 -86z"/>
<path d="M2527 3564 c-3 -4 1 -20 9 -36 20 -39 21 -38 -156 -170 -170 -126
-187 -131 -220 -64 -19 41 -20 47 -6 80 21 51 2 56 -44 11 l-38 -37 79 -101
c44 -56 100 -132 125 -169 25 -38 47 -68 50 -68 3 0 27 11 55 25 57 29 57 46
1 38 -33 -4 -44 -1 -75 27 -42 37 -54 65 -35 87 28 35 302 233 321 233 12 0
31 -9 43 -21 46 -43 31 1 -29 84 -62 86 -68 92 -80 81z"/>
<path d="M9336 3334 c-70 -77 -79 -102 -26 -70 18 10 36 14 44 9 26 -14 145
-118 145 -126 1 -11 -159 -192 -170 -192 -5 0 -38 25 -74 55 -66 55 -87 92
-66 113 13 13 15 37 3 37 -5 0 -39 -35 -77 -77 -65 -74 -74 -102 -21 -68 15
10 30 13 40 8 33 -19 306 -265 306 -276 0 -7 -7 -22 -15 -34 -15 -22 -2 -45
15 -27 42 46 120 140 120 146 0 13 -23 9 -41 -8 -13 -12 -22 -13 -38 -5 -24
13 -115 90 -119 102 -3 8 152 191 167 197 3 1 35 -24 71 -56 64 -58 64 -59 51
-88 -15 -33 -15 -39 -2 -39 11 0 131 136 131 148 0 13 -23 8 -42 -9 -17 -16
-20 -15 -55 9 -48 32 -263 226 -277 249 -8 13 -8 23 2 38 14 22 16 40 4 40 -4
0 -38 -34 -76 -76z"/>
<path d="M2779 3167 c-51 -31 -66 -55 -31 -49 99 17 97 17 151 -33 69 -65 72
-78 25 -127 -22 -22 -56 -53 -77 -70 l-38 -31 -25 24 c-41 38 -57 75 -42 98
24 39 -2 33 -51 -10 -50 -45 -67 -78 -33 -64 40 17 49 14 90 -28 l43 -43 -65
-63 c-74 -71 -79 -71 -140 1 -40 47 -42 54 -22 103 10 23 11 37 4 41 -6 4 -13
2 -17 -3 -3 -5 -19 -26 -34 -46 l-29 -36 118 -125 c67 -71 122 -122 127 -117
5 5 2 20 -7 34 -9 13 -14 31 -11 38 7 19 263 262 291 277 16 9 26 8 43 -5 13
-8 26 -12 31 -7 5 5 -49 68 -120 141 l-129 131 -52 -31z"/>
<path d="M8903 2877 c-61 -51 -71 -79 -21 -56 16 7 32 8 41 2 20 -11 207 -231
207 -244 0 -11 27 -16 -230 36 -245 49 -270 52 -270 31 0 -8 63 -89 140 -181
77 -92 140 -174 140 -183 0 -10 -7 -27 -15 -39 -31 -44 5 -32 70 23 46 40 63
60 55 68 -7 7 -14 6 -22 -2 -30 -30 -55 -13 -162 114 -59 70 -105 128 -102
131 2 2 109 -19 237 -46 129 -28 237 -51 241 -51 12 0 78 61 78 72 0 6 -11 7
-26 4 -14 -4 -34 -4 -44 -1 -22 7 -260 290 -260 308 0 7 7 22 15 33 40 53 3
43 -72 -19z"/>
<path d="M3280 2745 c0 -3 9 -19 21 -34 25 -34 20 -48 -48 -127 l-43 -51 -37
33 c-78 72 -163 80 -228 23 -66 -58 -65 -136 2 -201 76 -72 188 -156 197 -147
6 5 3 16 -7 27 -9 10 -17 26 -17 34 0 18 241 313 262 321 7 2 25 -2 40 -9 55
-28 35 5 -42 70 -71 59 -100 77 -100 61z m-165 -171 c18 -8 43 -26 55 -39 l23
-24 -58 -71 c-74 -90 -86 -97 -129 -71 -35 22 -56 58 -56 95 0 30 43 87 83
109 39 21 41 21 82 1z"/>
<path d="M3525 2551 c-3 -6 3 -19 15 -31 11 -11 20 -24 20 -30 0 -5 -22 -111
-50 -236 -27 -125 -50 -232 -50 -239 0 -7 9 -15 20 -18 14 -4 78 36 220 135
194 136 202 140 241 134 21 -3 39 -2 39 3 0 15 -144 103 -148 91 -2 -6 3 -19
12 -29 9 -10 16 -22 16 -27 0 -10 -90 -81 -113 -90 -7 -2 -46 17 -86 42 l-73
47 6 41 c19 116 25 123 79 101 11 -5 17 -3 17 6 0 8 -21 26 -48 41 -26 15 -61
37 -79 48 -19 13 -34 17 -38 11z m173 -376 c-35 -33 -168 -125 -168 -116 0 11
38 179 45 198 3 9 26 -1 70 -29 54 -33 64 -43 53 -53z"/>
<path d="M8118 2311 c-87 -48 -160 -90 -163 -93 -8 -8 30 -123 40 -123 6 0 11
18 13 40 5 74 10 83 73 120 33 19 68 35 79 35 13 0 33 -27 68 -90 l51 -90 -49
-25 c-58 -29 -68 -30 -92 -8 -33 29 -33 3 -1 -55 37 -67 54 -77 51 -31 -3 28
2 35 42 60 25 15 50 28 56 28 15 1 89 -142 82 -160 -3 -8 -31 -28 -63 -43
l-57 -29 -44 23 c-24 13 -46 21 -50 17 -4 -3 9 -26 29 -51 l37 -44 149 81 c83
45 149 87 147 92 -2 6 -10 8 -17 6 -8 -2 -25 -5 -39 -5 -25 -1 -48 34 -175
271 l-50 92 24 25 c50 53 10 41 -141 -43z"/>
<path d="M7738 2121 c-37 -14 -68 -32 -68 -40 0 -9 7 -11 24 -7 39 10 60 -20
115 -160 49 -127 57 -154 46 -154 -3 0 -98 54 -211 120 -200 117 -227 130
-238 111 -3 -5 25 -87 63 -182 102 -259 99 -248 67 -276 -45 -38 -21 -42 64
-10 83 32 109 61 46 50 -41 -6 -44 -2 -113 175 -25 65 -47 123 -50 130 -3 6
-1 12 4 12 5 0 100 -54 211 -120 110 -66 206 -120 213 -120 22 0 99 32 99 41
0 5 -10 9 -23 9 -46 0 -64 27 -131 198 -36 92 -66 175 -66 184 0 10 11 25 25
34 14 9 25 20 25 25 0 14 -30 9 -102 -20z"/>
<path d="M4300 2111 c0 -5 11 -16 25 -25 14 -9 25 -23 25 -31 0 -18 -138 -355
-153 -373 -7 -9 -23 -12 -44 -9 -22 4 -33 2 -33 -6 0 -10 70 -42 181 -85 18
-7 8 24 -11 36 -11 7 -20 22 -20 35 0 12 33 101 73 197 l72 175 40 1 c21 0 40
5 42 10 2 6 -37 27 -87 47 -96 39 -110 43 -110 28z"/>
<path d="M4590 1990 c0 -6 11 -16 25 -22 18 -8 25 -19 25 -39 0 -43 -98 -373
-115 -385 -8 -6 -26 -9 -40 -6 -17 3 -25 0 -25 -9 0 -9 32 -23 88 -38 48 -13
93 -26 100 -29 22 -8 13 23 -10 33 -13 6 -25 21 -26 35 -4 23 25 137 38 152 6
8 235 -54 247 -66 8 -8 -25 -126 -44 -155 -12 -18 -21 -22 -44 -17 -20 4 -29
2 -29 -7 0 -14 188 -72 199 -62 3 4 -6 16 -22 27 -15 11 -27 29 -27 42 0 31
98 367 112 383 7 9 21 12 40 8 20 -5 28 -3 28 7 0 14 -188 73 -199 62 -3 -3 6
-15 22 -26 17 -12 27 -29 27 -45 0 -19 -37 -167 -45 -180 -2 -3 -248 67 -253
72 -6 6 48 177 60 192 8 10 22 13 40 9 20 -4 28 -1 28 8 0 8 -35 23 -93 40
-105 29 -107 30 -107 16z"/>
<path d="M6736 1824 c-104 -18 -191 -36 -194 -38 -2 -3 58 -109 133 -236 184
-309 170 -310 241 25 29 138 53 258 54 268 0 22 -7 22 -234 -19z m150 -198
c-23 -113 -43 -207 -47 -210 -3 -3 -53 76 -112 176 -59 99 -106 182 -105 183
3 2 273 52 294 54 7 1 -4 -75 -30 -203z"/>
<path d="M5312 1808 c3 -7 15 -15 28 -18 43 -10 45 -27 21 -201 -12 -90 -27
-181 -32 -203 l-10 -38 -45 5 c-52 5 -72 20 -91 65 -19 45 -33 31 -33 -33 l0
-53 63 -7 c83 -9 318 -44 339 -51 13 -4 20 7 34 50 10 31 15 59 11 62 -3 4
-21 -10 -40 -30 -35 -37 -55 -42 -116 -30 -21 5 -33 14 -37 29 -8 31 43 384
57 401 6 8 24 14 40 14 34 0 39 18 7 24 -29 6 -175 26 -189 26 -6 0 -9 -6 -7
-12z"/>
<path d="M6250 1770 c-63 -4 -132 -8 -152 -9 -34 -1 -38 -4 -47 -38 -16 -55
-14 -93 4 -93 8 0 15 9 15 20 0 11 12 33 28 50 24 28 35 32 101 37 96 8 101 2
101 -124 l0 -94 -62 3 c-54 3 -64 6 -73 26 -17 39 -25 24 -25 -48 0 -54 3 -70
14 -70 8 0 16 10 18 22 3 25 31 35 96 37 l43 1 -3 -92 -3 -93 -50 -7 c-71 -9
-108 5 -129 49 -11 23 -20 33 -27 26 -10 -10 -3 -81 10 -102 11 -18 341 -3
341 16 0 7 -11 13 -24 13 -13 0 -28 6 -34 13 -11 13 -34 389 -25 413 3 8 18
18 34 21 41 8 38 33 -3 31 -18 -1 -85 -5 -148 -8z"/>
<path d="M8472 10879 c-81 -15 -139 -66 -181 -159 -69 -151 44 -324 209 -323
59 1 115 17 106 32 -3 4 -26 4 -52 -2 -90 -21 -180 22 -210 98 -40 106 35 275
139 314 101 38 204 -29 215 -138 2 -28 8 -54 13 -56 4 -3 16 19 25 50 l18 55
-43 44 c-71 73 -151 101 -239 85z"/>
<path d="M7806 10738 c-21 -30 -4 -60 32 -56 30 3 42 39 22 64 -17 20 -36 17
-54 -8z"/>
<path d="M3127 10646 c-84 -35 -126 -71 -154 -133 -72 -158 47 -354 215 -355
120 -1 215 77 237 195 10 51 -9 47 -24 -5 -17 -56 -38 -86 -85 -119 -46 -34
-108 -39 -162 -13 -43 21 -110 94 -135 147 -37 82 -12 187 53 227 44 27 122
27 166 0 37 -23 42 -24 42 -9 0 18 -64 89 -80 89 -8 0 -41 -11 -73 -24z"/>
<path d="M8922 10587 c-45 -14 -117 -79 -150 -135 -22 -38 -27 -59 -27 -113 0
-56 5 -73 30 -115 65 -104 192 -142 299 -90 96 47 150 132 150 236 0 73 -15
109 -66 160 -62 63 -152 84 -236 57z m177 -45 c50 -37 66 -70 66 -135 -1 -77
-37 -149 -108 -213 -74 -67 -146 -71 -205 -13 -31 30 -52 81 -52 126 0 51 43
138 95 190 74 73 144 89 204 45z"/>
<path d="M2650 10309 c-74 -40 -104 -71 -130 -132 -41 -95 -13 -206 70 -281
53 -48 97 -66 157 -66 123 0 233 106 233 223 0 44 -14 31 -27 -24 -39 -165
-200 -202 -326 -76 -101 101 -103 247 -5 307 39 24 111 26 152 5 15 -8 33 -12
38 -9 15 9 -63 84 -87 84 -11 0 -45 -14 -75 -31z"/>
<path d="M9410 10323 c0 -3 7 -14 16 -24 9 -10 13 -26 10 -36 -3 -11 -59 -82
-124 -159 -118 -139 -131 -148 -174 -129 -10 4 -18 3 -18 -3 0 -11 245 -217
258 -217 4 0 27 17 51 37 48 41 48 68 1 43 -16 -8 -42 -15 -59 -15 -37 0 -115
57 -119 88 -5 32 234 316 260 308 10 -3 28 -9 39 -13 34 -10 20 9 -53 70 -62
53 -88 67 -88 50z"/>
<path d="M9776 10011 c-3 -5 1 -14 9 -21 8 -7 15 -20 15 -29 0 -9 -63 -79
-140 -156 l-140 -140 -30 17 c-61 35 -35 -2 84 -121 l122 -122 47 36 c64 49
64 66 2 44 -18 -7 -44 -9 -59 -5 -36 9 -106 74 -106 99 0 20 194 227 253 269
26 19 29 19 53 4 13 -9 29 -14 35 -10 7 4 -17 35 -57 75 -69 70 -78 76 -88 60z"/>
<path d="M2228 9889 c-21 -5 -55 -20 -77 -34 -46 -31 -196 -193 -187 -202 3
-4 12 -1 18 5 27 27 56 10 181 -109 70 -67 132 -130 138 -141 8 -14 7 -25 -5
-43 -19 -29 -20 -35 -4 -35 20 0 202 201 225 249 13 26 23 65 23 91 0 93 -90
196 -191 219 -51 12 -71 12 -121 0z m116 -68 c58 -29 114 -85 138 -138 16 -36
17 -49 8 -82 -13 -47 -65 -120 -102 -140 -25 -15 -27 -13 -167 119 -101 95
-141 140 -141 156 0 27 70 90 115 104 42 13 97 6 149 -19z"/>
<path d="M1809 9492 l-26 -37 104 -178 c57 -99 103 -181 101 -183 -2 -1 -93
21 -203 51 -109 30 -199 54 -200 52 -1 -1 -16 -21 -33 -44 -34 -43 -28 -70 8
-38 12 11 24 14 34 8 9 -5 77 -66 151 -137 126 -119 136 -131 130 -157 -10
-43 9 -35 50 21 38 52 40 74 4 52 -17 -11 -25 -10 -47 4 -30 19 -233 206 -229
210 1 2 90 -22 197 -51 107 -30 198 -51 202 -47 4 4 -40 88 -96 187 -57 99
-102 182 -101 183 2 2 66 -38 142 -90 133 -90 138 -94 135 -126 -1 -17 2 -32
7 -32 13 0 101 122 94 132 -3 5 -13 2 -22 -6 -10 -9 -22 -16 -28 -16 -6 0 -86
50 -178 110 -120 80 -165 115 -161 125 3 8 9 22 12 30 12 30 -21 14 -47 -23z"/>
<path d="M9805 9366 c-26 -19 -13 -66 19 -66 13 0 29 7 36 15 26 31 -22 75
-55 51z"/>
<path d="M10350 9049 c-204 -42 -251 -46 -270 -24 -14 17 -30 20 -30 6 0 -14
83 -131 93 -131 5 0 6 13 2 29 -7 35 -2 39 73 56 37 9 61 10 69 4 6 -6 30 -39
53 -74 l42 -64 -42 -55 c-24 -31 -47 -56 -53 -56 -6 0 -19 7 -29 17 -38 34
-28 2 22 -71 51 -76 78 -93 58 -36 -9 28 -3 39 130 222 182 250 188 241 -118
177z m170 -4 c0 -9 -112 -155 -119 -155 -10 0 -84 111 -78 117 7 6 154 41 180
42 9 1 17 -1 17 -4z"/>
<path d="M10774 8747 c5 -25 2 -38 -11 -49 -29 -25 -316 -178 -335 -178 -10 0
-23 9 -30 20 -14 22 -28 26 -28 9 0 -6 35 -75 78 -155 85 -159 77 -153 159
-119 46 19 41 35 -10 35 -55 0 -81 19 -113 81 -19 38 -22 54 -14 64 15 18 325
185 344 185 8 0 22 -9 30 -21 8 -12 19 -18 24 -15 11 7 -77 176 -92 176 -4 0
-5 -15 -2 -33z"/>
<path d="M1635 8504 c-19 -20 -16 -43 8 -58 34 -22 73 27 47 59 -16 19 -35 19
-55 -1z"/>
<path d="M1195 8491 c-38 -17 -73 -66 -123 -173 -48 -103 -54 -149 -11 -95 16
21 24 24 47 17 47 -14 318 -148 331 -164 7 -8 10 -24 6 -35 -3 -12 -3 -26 1
-33 8 -12 93 145 93 175 1 24 -8 21 -31 -8 -25 -32 -42 -32 -121 6 l-66 30 25
52 c15 32 24 70 24 100 0 41 -5 53 -38 88 -28 31 -46 41 -77 44 -22 3 -49 1
-60 -4z m71 -70 c74 -34 90 -80 54 -159 l-19 -43 -91 46 c-99 50 -107 63 -75
125 27 53 64 61 131 31z"/>
<path d="M10994 8313 l1 -37 -160 -71 c-202 -90 -200 -90 -229 -58 -13 14 -26
21 -28 17 -3 -5 24 -78 61 -162 l66 -154 37 6 c85 14 116 46 43 46 -44 0 -89
38 -111 95 -13 34 -14 48 -5 59 13 16 331 156 354 156 9 0 23 -9 31 -21 33
-48 32 -9 -2 73 -40 94 -60 112 -58 51z"/>
<path d="M1400 7942 c0 -6 -7 -18 -16 -26 -13 -14 -51 -16 -255 -16 l-239 0 0
-22 c0 -16 36 -56 123 -135 236 -216 227 -207 227 -241 0 -51 15 -37 43 39 29
79 26 106 -7 64 l-22 -27 -57 47 c-31 25 -57 47 -57 49 0 1 13 38 29 82 l29
79 76 3 76 3 0 -36 c0 -57 16 -41 45 45 30 90 31 93 16 98 -6 2 -11 -1 -11 -6z
m-240 -110 c0 -17 -42 -132 -48 -132 -4 0 -41 32 -82 70 l-75 69 103 1 c56 0
102 -4 102 -8z"/>
<path d="M11178 7873 l-3 -38 -165 -57 c-190 -65 -213 -68 -236 -33 -36 56
-29 7 21 -147 l54 -163 42 -3 c85 -7 123 21 45 32 -52 8 -77 33 -100 100 -26
81 -26 81 76 115 51 17 95 28 99 23 5 -4 14 -29 21 -56 12 -46 12 -49 -11 -67
-34 -28 -7 -33 56 -12 54 19 69 38 30 38 -23 0 -54 48 -59 94 -3 21 5 26 67
48 39 13 76 22 84 21 14 -3 49 -86 50 -121 1 -10 -13 -32 -29 -49 -42 -42 -28
-52 31 -22 39 19 49 29 44 42 -4 9 -27 79 -51 155 -25 75 -49 137 -54 137 -5
0 -10 -17 -12 -37z"/>
<path d="M11082 7347 c-87 -32 -152 -127 -152 -224 0 -67 33 -155 76 -203 34
-37 35 -37 72 -24 44 16 102 18 102 4 0 -5 7 -10 15 -10 19 0 19 2 -1 89 -10
44 -21 70 -28 68 -6 -2 -10 -15 -8 -29 3 -32 -10 -42 -77 -57 -52 -11 -56 -10
-77 11 -29 29 -49 103 -40 148 25 134 202 220 332 161 49 -22 80 -60 95 -114
17 -63 5 -105 -43 -154 -23 -23 -39 -45 -36 -49 3 -3 29 3 56 12 50 18 50 18
57 72 22 177 -91 314 -259 311 -28 0 -66 -6 -84 -12z"/>
<path d="M1112 7138 c-21 -21 -14 -57 12 -64 32 -8 46 2 46 30 0 24 -17 46
-35 46 -6 0 -16 -5 -23 -12z"/>
<path d="M1010 6969 c0 -6 16 -25 35 -43 32 -31 35 -38 35 -93 0 -102 1 -102
-191 -74 -220 32 -229 35 -229 71 0 19 -5 30 -14 30 -10 0 -17 -24 -26 -81 -6
-45 -14 -87 -17 -95 -3 -8 1 -14 10 -14 8 0 18 11 21 24 3 13 12 26 21 29 21
9 373 -49 390 -63 8 -7 15 -23 15 -36 0 -13 5 -24 10 -24 6 0 10 3 10 8 0 4
11 78 25 165 14 87 25 160 25 162 0 3 -40 18 -87 34 -22 7 -33 7 -33 0z"/>
<path d="M11016 6727 c-36 -26 4 -84 42 -61 23 15 26 38 7 58 -20 19 -26 20
-49 3z"/>
<path d="M1040 6510 c0 -11 -10 -26 -22 -33 -13 -8 -119 -42 -236 -77 -198
-59 -212 -65 -206 -84 4 -12 9 -22 13 -24 3 -2 98 -49 211 -105 190 -95 205
-104 214 -134 10 -38 26 -44 26 -9 0 12 3 51 6 85 5 43 4 61 -5 61 -6 0 -16
-11 -21 -25 -12 -31 -24 -31 -95 1 l-58 27 7 85 c3 47 8 88 11 90 9 9 134 40
139 34 3 -3 6 -16 6 -29 0 -14 6 -23 15 -23 11 0 15 13 15 53 0 28 3 69 6 90
5 30 4 37 -10 37 -9 0 -16 -8 -16 -20z m-197 -222 c-3 -40 -7 -74 -8 -76 -1
-1 -46 16 -98 40 -53 23 -94 44 -92 46 3 4 182 59 197 61 4 1 4 -32 1 -71z"/>
<path d="M11500 6305 c0 -17 -7 -28 -22 -34 -13 -4 -105 -11 -206 -15 l-182
-7 -16 36 c-8 20 -18 34 -22 31 -4 -2 -6 -47 -4 -100 3 -75 6 -96 18 -96 8 0
14 10 14 25 0 13 8 28 18 33 9 5 102 13 205 17 l188 7 12 -31 c6 -17 15 -31
19 -31 4 0 8 43 8 95 0 78 -3 95 -15 95 -9 0 -15 -9 -15 -25z"/>
<path d="M11060 6011 c0 -21 -3 -59 -6 -85 -6 -38 -4 -46 10 -46 9 0 16 8 16
19 0 39 21 43 180 35 102 -4 150 -10 147 -18 -2 -6 -62 -53 -133 -104 -229
-165 -250 -183 -231 -197 11 -8 86 -15 214 -19 108 -4 205 -12 215 -17 10 -5
18 -21 18 -34 0 -16 6 -25 15 -25 12 0 15 15 15 75 0 41 0 78 1 82 0 4 -4 9
-10 11 -6 2 -11 -5 -11 -15 0 -38 -19 -43 -159 -42 -221 2 -220 -6 -14 139 98
69 186 133 195 143 18 17 27 107 11 107 -3 0 -18 -14 -32 -30 l-26 -31 -181 9
c-100 5 -186 12 -192 16 -6 3 -13 20 -17 36 -9 43 -25 37 -25 -9z"/>
<path d="M1016 5938 c-9 -20 -59 -75 -120 -132 -123 -114 -103 -113 -224 -1
-47 44 -75 78 -79 96 -3 17 -12 29 -21 29 -11 0 -13 -8 -8 -37 3 -21 6 -57 6
-80 0 -45 14 -57 25 -23 3 11 10 20 14 20 10 0 164 -129 179 -151 22 -31 5
-39 -84 -39 l-86 0 -11 30 c-20 53 -28 32 -25 -67 2 -66 7 -98 16 -101 7 -2
12 6 12 20 0 48 7 50 209 61 202 10 221 7 221 -34 0 -11 6 -19 13 -19 10 0 12
21 9 93 -5 111 -21 141 -34 62 -4 -24 -34 -33 -125 -34 -85 -1 -92 9 -40 64
52 55 161 145 175 145 10 0 11 14 6 63 -4 34 -8 64 -10 66 -2 2 -10 -12 -18
-31z"/>
<path d="M11018 5390 c-42 -141 1 -237 110 -248 41 -4 52 0 81 24 18 15 51 56
73 91 22 35 48 68 58 73 33 18 75 11 100 -15 45 -48 18 -128 -50 -151 -55 -18
-49 -34 13 -34 l54 0 16 51 c39 119 0 203 -100 216 -52 7 -98 -26 -144 -102
-46 -78 -92 -104 -147 -83 -22 8 -42 25 -50 41 -27 57 17 148 81 165 55 14 44
32 -20 32 l-58 0 -17 -60z"/>
<path d="M1090 5170 c0 -40 -8 -43 -220 -81 l-174 -31 -17 21 c-10 12 -19 27
-22 34 -2 6 -8 9 -12 5 -11 -11 26 -199 39 -195 6 3 10 10 8 17 -6 28 11 50
46 59 55 14 316 61 341 61 13 0 26 -10 33 -25 6 -14 17 -25 23 -25 9 0 7 25
-6 93 -10 50 -19 93 -19 95 0 1 -4 2 -10 2 -5 0 -10 -14 -10 -30z"/>
<path d="M11330 4972 c0 -5 11 -19 25 -32 44 -41 31 -150 -18 -150 -39 1 -346
77 -362 90 -8 7 -15 25 -15 41 0 37 -18 38 -26 2 -3 -16 -14 -61 -24 -100 -14
-55 -15 -73 -6 -73 7 0 18 11 24 25 12 25 20 29 57 25 39 -3 317 -71 337 -81
43 -23 -5 -129 -59 -129 -38 0 -27 -27 15 -34 69 -11 68 -12 81 64 7 39 28
127 45 197 l33 125 -44 19 c-49 21 -63 23 -63 11z"/>
<path d="M1140 4901 c0 -23 -6 -34 -22 -41 -41 -18 -359 -89 -374 -83 -8 3
-17 16 -20 30 -6 22 -26 29 -25 8 0 -11 17 -86 32 -147 12 -47 29 -49 29 -4 0
27 5 36 28 44 49 20 331 84 353 80 18 -2 28 -12 46 -47 1 -1 6 -1 10 2 12 8
-30 180 -45 185 -8 2 -12 -8 -12 -27z"/>
<path d="M1210 4641 c0 -16 -6 -34 -13 -40 -17 -14 -338 -111 -367 -111 -12 0
-25 10 -32 25 -11 26 -28 34 -28 14 0 -6 12 -49 26 -95 25 -85 44 -108 44 -55
0 16 6 33 13 39 13 11 341 112 363 112 7 0 21 -12 32 -27 33 -45 35 -21 6 76
-28 92 -44 115 -44 62z"/>
<path d="M10835 4536 c-27 -19 -13 -66 20 -66 25 0 51 32 40 50 -13 22 -42 29
-60 16z"/>
<path d="M1288 4373 l-3 -38 -170 -62 c-93 -34 -180 -62 -193 -63 -15 0 -26 9
-34 25 -11 25 -20 30 -30 20 -9 -9 58 -179 72 -183 9 -3 10 4 6 25 -5 20 -2
34 6 41 16 12 344 132 364 132 7 0 21 -12 32 -27 11 -16 23 -25 27 -21 9 8
-54 188 -66 188 -4 0 -9 -17 -11 -37z"/>
<path d="M10676 4095 c-30 -69 -29 -90 3 -61 19 17 21 15 59 -51 67 -116 66
-112 40 -118 -64 -15 -174 -32 -180 -29 -4 3 -5 11 -2 18 3 8 1 17 -5 21 -12
7 -82 -134 -74 -148 3 -5 15 1 27 12 20 19 222 71 275 71 29 0 114 -160 117
-220 1 -24 6 -45 10 -47 11 -3 69 125 61 134 -4 3 -14 0 -22 -7 -11 -9 -19
-10 -26 -3 -13 13 -89 143 -89 153 0 8 178 39 185 32 3 -3 5 -14 5 -24 0 -35
17 -17 48 53 32 72 33 111 3 70 -22 -28 -254 -79 -277 -61 -7 7 -36 55 -65
107 -42 78 -50 102 -46 129 9 57 -16 40 -47 -31z"/>
<path d="M960 3963 c0 -5 12 -36 27 -71 29 -65 47 -76 48 -26 0 28 2 29 55 35
30 4 113 9 184 13 l128 6 -118 -123 c-65 -67 -124 -126 -132 -130 -8 -6 -20
-3 -32 8 -37 34 -39 9 -5 -65 38 -83 55 -98 55 -49 0 29 19 52 165 199 91 91
165 171 165 178 0 10 -51 12 -248 6 -223 -6 -248 -5 -261 10 -14 17 -31 22
-31 9z"/>
<path d="M10452 3628 c-41 -71 -72 -127 -72 -132 0 -12 21 -5 40 14 25 25 25
25 215 -82 149 -85 150 -85 150 -121 0 -19 3 -38 6 -42 4 -3 28 33 54 80 49
91 52 115 9 74 l-25 -24 -72 38 c-40 21 -117 64 -172 95 -99 57 -100 58 -99
95 2 46 -8 47 -34 5z"/>
<path d="M1722 3418 c-25 -25 -7 -68 29 -68 29 0 44 27 31 55 -12 27 -40 33
-60 13z"/>
<path d="M10295 3358 c-26 -39 -49 -77 -52 -84 -8 -21 16 -25 27 -4 6 11 19
20 29 20 21 0 283 -161 320 -196 21 -20 23 -26 13 -48 -8 -17 -8 -27 -1 -32 6
-3 12 -4 13 -3 19 24 96 152 96 159 0 15 -16 12 -30 -5 -7 -8 -21 -15 -32 -15
-26 0 -327 191 -334 212 -3 9 0 26 5 37 7 12 7 22 2 26 -6 3 -31 -27 -56 -67z"/>
<path d="M1782 3208 c3 -7 18 -15 34 -19 166 -34 209 -213 79 -327 -110 -97
-249 -101 -305 -9 -38 61 -36 99 8 199 10 22 -29 3 -62 -30 l-37 -39 26 -65
c49 -123 121 -179 233 -179 32 0 76 6 96 15 96 40 166 136 166 225 0 90 -73
195 -152 219 -68 21 -90 23 -86 10z"/>
<path d="M9996 2929 c-38 -45 -55 -74 -49 -80 6 -6 14 -4 23 6 21 25 46 18
107 -31 83 -67 80 -64 59 -80 -15 -10 -49 -14 -130 -13 -61 1 -122 4 -136 8
-21 6 -31 0 -62 -38 -39 -47 -42 -72 -5 -46 17 12 54 15 174 15 175 0 156 14
173 -132 9 -82 9 -101 -5 -134 -8 -20 -13 -40 -9 -43 7 -8 103 100 104 117 0
15 -12 16 -28 0 -18 -18 -23 -7 -38 99 -16 116 -17 133 -5 152 8 12 23 3 75
-43 65 -57 77 -81 54 -104 -8 -8 -9 -15 -2 -22 7 -7 30 13 72 65 34 41 62 77
62 80 0 11 -28 4 -40 -10 -7 -8 -18 -15 -25 -15 -13 0 -279 214 -305 245 -11
13 -11 21 -2 36 14 22 16 39 4 39 -4 0 -34 -32 -66 -71z"/>
<path d="M2059 2683 c-189 -169 -184 -166 -221 -147 -17 9 -32 13 -35 10 -6
-5 63 -92 92 -116 23 -19 31 -4 14 26 -14 27 -13 28 86 121 99 94 143 129 149
122 2 -2 -7 -58 -20 -124 -12 -66 -31 -168 -41 -226 l-20 -106 32 -38 c33 -39
65 -42 45 -5 -17 31 1 55 121 163 158 141 155 140 191 121 17 -9 32 -13 35
-10 7 7 -96 126 -109 126 -6 0 -7 -9 -4 -22 4 -13 8 -29 9 -37 2 -15 -221
-226 -230 -218 -3 4 12 110 33 236 29 171 36 233 27 242 -8 8 -48 -22 -154
-118z"/>
<path d="M9667 2551 c-39 -39 -55 -61 -47 -66 6 -4 17 -2 23 4 25 25 45 11 72
-54 l28 -66 -29 -30 c-16 -17 -46 -44 -66 -60 l-37 -30 -53 27 c-78 39 -80 42
-61 70 32 49 1 36 -62 -26 -60 -60 -77 -92 -35 -70 34 18 59 11 193 -56 72
-37 165 -82 204 -100 l73 -33 6 25 c5 18 -16 84 -76 236 -77 194 -82 213 -72
242 23 64 13 62 -61 -13z m134 -317 c21 -49 36 -90 34 -92 -1 -2 -44 18 -95
43 l-93 47 49 49 c27 27 53 48 58 46 6 -2 27 -44 47 -93z"/>
<path d="M2540 2416 c0 -8 5 -18 10 -21 26 -16 2 -54 -116 -179 -69 -74 -133
-137 -141 -140 -8 -3 -25 1 -38 10 -13 8 -26 11 -29 6 -7 -11 131 -148 141
-138 4 4 2 16 -5 26 -7 11 -12 28 -12 38 0 10 60 81 133 157 l133 139 32 -13
c18 -8 35 -11 38 -8 6 6 -119 129 -137 135 -5 2 -9 -3 -9 -12z"/>
<path d="M9200 2123 c-58 -47 -116 -94 -129 -104 -24 -19 -24 -20 -7 -57 23
-51 43 -75 54 -68 7 4 6 18 0 40 -15 48 4 89 60 132 39 29 48 32 63 22 32 -22
239 -290 239 -308 0 -10 -7 -23 -15 -30 -19 -16 -19 -34 0 -26 22 8 145 108
145 118 0 11 -17 10 -41 -3 -15 -8 -24 -7 -36 3 -19 16 -202 241 -228 281 -17
27 -17 28 4 51 18 20 20 37 2 35 -3 0 -53 -39 -111 -86z"/>
<path d="M2855 1927 c-10 -8 -16 -23 -13 -38 2 -19 9 -24 33 -24 25 0 31 4 33
27 4 34 -26 54 -53 35z"/>
<path d="M8894 1896 c-10 -27 1 -51 26 -54 31 -5 53 23 39 49 -12 22 -57 25
-65 5z"/>
<path d="M3440 1657 c-242 -189 -314 -238 -343 -235 -50 5 -41 -16 25 -54 35
-21 65 -33 67 -27 2 6 -2 16 -8 22 -26 26 -7 49 125 152 76 58 138 104 140
102 3 -3 -39 -272 -52 -331 -5 -25 -9 -27 -35 -22 -53 10 -40 -13 30 -53 87
-51 115 -54 74 -9 -15 17 -14 33 21 241 20 122 36 230 36 240 0 27 -21 20 -80
-26z"/>
<path d="M8587 1689 c-29 -17 -57 -84 -57 -139 0 -42 11 -72 67 -184 64 -128
66 -136 50 -154 -37 -41 -13 -40 65 3 46 24 84 49 86 54 2 6 -15 9 -40 8 l-43
-2 -72 140 c-74 144 -88 187 -71 219 8 14 17 17 43 13 37 -6 61 12 51 38 -6
17 -52 20 -79 4z"/>
<path d="M3770 1538 c0 -6 7 -19 15 -28 15 -16 65 -226 65 -270 0 -30 -173
-122 -223 -118 -55 5 -44 -18 26 -49 55 -25 83 -25 59 -1 -7 7 -12 15 -12 20
0 7 148 98 161 98 3 0 12 -35 18 -77 7 -43 15 -86 17 -95 4 -14 -1 -18 -20
-18 -14 0 -26 -4 -26 -8 0 -12 141 -72 153 -65 6 4 4 10 -5 17 -8 6 -20 20
-26 31 -13 26 -53 235 -46 246 2 4 46 32 97 61 70 40 102 52 135 53 23 0 42 5
42 10 -1 13 -128 70 -137 62 -3 -4 2 -16 11 -26 17 -19 17 -20 -6 -34 -73 -45
-151 -87 -156 -83 -8 8 -40 196 -33 197 3 1 14 0 25 -1 10 -1 16 4 14 10 -5
16 -148 81 -148 68z"/>
<path d="M8112 1454 c-58 -29 -87 -63 -97 -115 -9 -47 6 -100 66 -232 52 -115
58 -144 34 -153 -8 -4 -15 -13 -15 -21 0 -8 4 -13 8 -11 88 36 142 63 142 70
0 4 -17 8 -39 8 -43 0 -42 -1 -128 194 -56 126 -45 194 37 231 50 23 104 15
141 -20 29 -29 139 -261 139 -296 0 -11 -10 -29 -22 -39 -43 -34 -10 -32 76 7
86 38 106 61 49 55 -30 -3 -33 0 -69 80 -80 173 -109 222 -143 245 -47 32
-112 31 -179 -3z"/>
<path d="M7673 1277 c-169 -57 -161 -50 -147 -139 8 -45 34 -53 34 -10 0 50
34 89 93 108 30 9 61 15 69 12 15 -6 128 -329 128 -364 0 -12 -10 -28 -22 -37
-44 -29 -9 -29 77 0 82 27 111 52 53 45 -18 -2 -30 3 -37 17 -20 36 -121 336
-121 357 0 13 10 25 25 32 26 12 34 33 13 31 -7 0 -82 -24 -165 -52z"/>
<path d="M4293 1259 c-24 -12 -43 -25 -43 -30 0 -12 1 -12 43 6 49 20 134 19
177 -3 76 -38 105 -129 75 -237 -28 -105 -103 -175 -187 -175 -72 0 -148 70
-148 136 0 29 -14 53 -26 42 -2 -3 -8 -29 -14 -59 -10 -50 -9 -55 12 -72 47
-37 142 -77 187 -77 143 0 251 110 251 258 0 75 -15 116 -61 161 -71 71 -182
92 -266 50z"/>
<path d="M7338 1170 c-19 -15 -21 -22 -12 -37 7 -11 23 -18 40 -18 24 0 30 5
32 27 5 39 -28 54 -60 28z"/>
<path d="M4868 1126 c-50 -13 -98 -41 -98 -56 0 -14 12 -12 36 4 64 45 178 39
227 -12 120 -125 32 -392 -128 -392 -72 0 -134 48 -152 121 -11 39 -33 51 -33
17 0 -12 -3 -39 -6 -59 -6 -36 -6 -37 55 -67 108 -54 194 -54 276 0 83 55 128
172 106 274 -28 123 -160 202 -283 170z"/>
<path d="M6888 1073 c-40 -4 -55 -33 -18 -33 10 0 23 -8 28 -17 11 -20 24
-338 14 -328 -4 3 -49 83 -102 178 -53 95 -100 172 -105 172 -6 0 -35 -89 -66
-198 -31 -109 -58 -200 -61 -202 -2 -3 -17 62 -32 143 -15 81 -30 159 -33 174
-4 23 -1 29 21 38 38 14 33 34 -6 26 -18 -3 -57 -8 -85 -12 -59 -7 -68 -18
-23 -27 20 -4 31 -14 35 -29 3 -13 21 -102 40 -198 33 -163 34 -176 18 -187
-9 -7 -20 -13 -25 -13 -4 0 -8 -4 -8 -10 0 -12 70 -13 88 -1 8 4 38 95 67 201
29 105 56 194 58 196 3 3 46 -68 95 -158 120 -216 107 -201 170 -192 55 7 67
26 20 32 -23 3 -26 8 -32 70 -3 37 -6 129 -6 204 0 127 1 138 20 148 11 6 20
15 20 20 0 10 -19 10 -92 3z"/>
<path d="M5423 1038 c-47 -8 -137 -64 -128 -78 3 -6 23 1 43 15 75 49 178 51
229 4 49 -47 65 -94 61 -183 -4 -98 -26 -147 -81 -187 -80 -58 -183 -31 -227
59 -14 29 -29 52 -33 52 -4 0 -7 -28 -5 -62 l3 -62 65 -23 c74 -27 164 -27
216 0 49 25 103 88 120 140 24 73 16 173 -19 226 -52 78 -147 117 -244 99z"/>
<path d="M6019 1001 c-58 -12 -112 -45 -143 -89 -23 -32 -30 -54 -34 -110 -6
-87 9 -132 62 -190 67 -73 107 -86 269 -85 75 1 138 5 140 10 1 4 -7 9 -18 11
-43 9 -45 16 -45 217 0 200 2 208 43 216 10 2 18 9 18 14 -1 12 -238 17 -292
6z m148 -29 c8 -5 12 -68 14 -205 4 -221 5 -217 -64 -217 -113 0 -195 88 -205
221 -10 140 51 206 188 208 30 0 60 -3 67 -7z"/>
<path d="M4039 11631 c-30 -24 -31 -82 -4 -172 l19 -61 35 7 c100 18 158 68
146 124 -8 38 -73 97 -122 110 -49 14 -47 14 -74 -8z"/>
<path d="M7995 11608 c-27 -21 -95 -148 -95 -179 0 -15 63 -49 118 -64 39 -11
81 4 97 35 31 61 6 177 -46 214 -31 21 -41 20 -74 -6z"/>
<path d="M3739 11539 c-18 -18 -21 -29 -15 -73 7 -65 46 -176 61 -176 28 0
115 32 139 51 41 32 37 87 -11 141 -37 40 -101 77 -135 78 -10 0 -28 -10 -39
-21z"/>
<path d="M8263 11468 c-30 -32 -83 -126 -83 -148 0 -6 24 -22 53 -35 88 -42
139 -31 157 34 22 82 -23 181 -82 181 -8 0 -28 -15 -45 -32z"/>
<path d="M3463 11425 c-31 -22 -30 -79 2 -169 32 -91 35 -93 92 -77 115 30
146 99 78 178 -54 64 -134 95 -172 68z"/>
<path d="M8538 11333 c-20 -21 -47 -61 -61 -89 l-26 -51 32 -19 c80 -49 128
-54 162 -19 53 52 20 205 -45 213 -18 2 -35 -8 -62 -35z"/>
<path d="M3181 11286 c-32 -38 27 -256 68 -256 24 0 114 44 131 64 51 63 -40
189 -148 203 -27 4 -42 1 -51 -11z"/>
<path d="M8821 11203 c-25 -26 -59 -70 -75 -97 l-29 -49 34 -28 c19 -16 54
-36 78 -46 39 -15 46 -15 70 -2 83 46 81 258 -3 267 -23 3 -37 -6 -75 -45z"/>
<path d="M2930 11107 c-39 -20 -39 -75 0 -154 18 -35 38 -67 45 -69 33 -13
145 74 145 112 0 69 -127 143 -190 111z"/>
<path d="M9077 11037 c-29 -29 -61 -70 -72 -90 l-19 -36 29 -32 c104 -109 208
-66 209 86 0 80 -23 125 -65 125 -24 0 -42 -12 -82 -53z"/>
<path d="M2652 10954 c-15 -10 -22 -25 -22 -48 0 -33 44 -130 78 -175 l19 -23
50 25 c60 31 103 79 103 114 0 35 -64 95 -117 111 -54 16 -84 15 -111 -4z"/>
<path d="M9325 10859 c-24 -23 -54 -57 -66 -76 l-21 -34 23 -25 c12 -13 47
-36 76 -51 61 -29 89 -24 119 22 25 39 24 137 -3 173 -33 44 -73 41 -128 -9z"/>
<path d="M2406 10759 c-14 -11 -26 -30 -26 -42 1 -29 31 -92 69 -145 l32 -43
41 23 c54 30 98 85 98 121 0 77 -149 137 -214 86z"/>
<path d="M9605 10702 c-17 -11 -52 -43 -79 -73 l-48 -54 51 -47 c80 -74 147
-75 177 -3 26 64 12 165 -26 185 -26 14 -41 12 -75 -8z"/>
<path d="M2172 10568 c-12 -6 -25 -22 -28 -35 -8 -28 33 -114 76 -161 l31 -33
28 20 c50 36 91 90 91 120 0 66 -127 123 -198 89z"/>
<path d="M9844 10511 c-37 -17 -124 -104 -124 -125 0 -17 52 -78 84 -97 17
-10 46 -19 64 -19 26 0 36 6 52 32 41 67 33 183 -15 214 -17 11 -26 10 -61 -5z"/>
<path d="M1932 10354 c-12 -8 -22 -24 -22 -35 0 -30 33 -88 77 -139 l40 -44
28 18 c82 54 108 121 62 164 -51 48 -142 66 -185 36z"/>
<path d="M10060 10290 c-19 -10 -55 -39 -79 -64 l-44 -45 28 -36 c32 -42 80
-75 112 -75 47 0 101 106 89 178 -10 64 -41 77 -106 42z"/>
<path d="M1723 10145 c-28 -12 -33 -19 -33 -48 0 -37 33 -89 93 -146 l35 -33
56 54 c47 46 56 60 56 90 0 41 -21 64 -77 84 -49 17 -90 17 -130 -1z"/>
<path d="M10270 10069 c-41 -25 -110 -89 -110 -102 0 -23 73 -96 105 -107 47
-16 79 5 107 67 22 50 21 120 -2 148 -17 21 -59 19 -100 -6z"/>
<path d="M1513 9916 c-60 -27 -50 -80 29 -157 71 -68 73 -69 135 -5 48 50 54
61 51 93 -4 52 -41 76 -121 80 -39 2 -74 -2 -94 -11z"/>
<path d="M10491 9845 c-49 -22 -131 -85 -131 -101 0 -8 22 -37 48 -64 37 -38
55 -50 78 -50 61 0 104 61 104 148 0 41 -4 54 -22 66 -27 19 -34 19 -77 1z"/>
<path d="M1352 9700 c-66 -15 -86 -54 -57 -109 16 -33 111 -121 129 -121 28 0
106 107 106 146 0 35 -36 71 -84 83 -50 12 -48 12 -94 1z"/>
<path d="M10654 9590 c-33 -16 -71 -41 -83 -54 l-23 -25 21 -35 c49 -78 112
-112 162 -86 53 29 80 169 39 210 -27 27 -46 25 -116 -10z"/>
<path d="M1165 9453 c-72 -19 -87 -77 -33 -138 26 -31 108 -95 120 -95 10 0
80 103 87 127 22 80 -66 133 -174 106z"/>
<path d="M10868 9356 c-51 -18 -128 -65 -134 -81 -8 -19 44 -112 74 -136 49
-38 106 -16 146 55 30 52 38 98 25 133 -17 46 -44 53 -111 29z"/>
<path d="M952 9195 c-37 -16 -47 -34 -38 -70 8 -31 75 -98 133 -132 51 -29 59
-26 105 46 35 55 36 100 5 129 -44 42 -142 54 -205 27z"/>
<path d="M10961 9064 c-39 -19 -71 -39 -71 -43 0 -20 68 -117 92 -130 57 -32
137 37 146 127 8 90 -47 106 -167 46z"/>
<path d="M823 8915 c-77 -33 -61 -101 39 -166 34 -21 66 -39 72 -39 14 0 62
76 71 113 11 41 -2 75 -35 92 -36 19 -104 19 -147 0z"/>
<path d="M11126 8805 c-32 -13 -63 -28 -69 -34 -21 -21 23 -106 75 -144 24
-18 30 -18 58 -7 47 19 82 72 88 130 3 32 0 55 -8 65 -18 22 -76 18 -144 -10z"/>
<path d="M684 8642 c-61 -29 -69 -62 -28 -111 25 -29 121 -91 142 -91 16 0 59
79 67 121 15 80 -86 125 -181 81z"/>
<path d="M11350 8553 c-14 -2 -58 -15 -98 -30 -73 -25 -73 -25 -66 -57 8 -40
31 -85 57 -113 43 -47 126 -16 178 66 31 47 38 101 16 119 -16 14 -56 21 -87
15z"/>
<path d="M547 8386 c-68 -25 -84 -57 -52 -103 17 -25 110 -88 160 -109 l35
-14 30 52 c52 91 34 154 -51 178 -45 13 -76 12 -122 -4z"/>
<path d="M11455 8273 c-11 -2 -49 -14 -84 -26 l-63 -21 6 -44 c13 -92 73 -154
129 -133 38 15 87 61 107 102 47 91 6 144 -95 122z"/>
<path d="M487 8109 c-163 -37 -152 -134 23 -205 l64 -26 18 24 c26 34 52 121
44 152 -12 47 -77 71 -149 55z"/>
<path d="M11555 7984 c-79 -16 -135 -39 -135 -54 0 -38 32 -119 56 -144 33
-32 61 -33 105 -3 58 39 97 134 71 174 -7 12 -57 34 -70 32 -4 -1 -16 -3 -27
-5z"/>
<path d="M360 7798 c-119 -61 -94 -133 66 -188 31 -11 58 -20 60 -20 9 0 44
117 44 146 0 78 -81 107 -170 62z"/>
<path d="M11605 7685 c-5 -2 -29 -9 -53 -15 l-44 -11 7 -42 c9 -56 42 -125 67
-138 50 -27 129 24 162 103 21 49 20 55 -9 83 -19 20 -34 25 -72 24 -26 0 -52
-2 -58 -4z"/>
<path d="M325 7510 c-106 -23 -146 -92 -85 -144 34 -28 159 -71 170 -59 28 31
39 147 18 176 -17 22 -66 35 -103 27z"/>
<path d="M11626 7378 l-38 -11 6 -51 c14 -102 64 -158 123 -135 89 33 146 155
91 193 -26 18 -120 20 -182 4z"/>
<path d="M235 7205 c-45 -16 -95 -66 -95 -94 0 -11 13 -30 29 -44 32 -26 150
-63 175 -54 18 7 39 105 31 140 -14 55 -72 77 -140 52z"/>
<path d="M11690 7081 c-30 -5 -36 -11 -38 -35 -10 -88 24 -156 79 -156 77 0
178 107 155 165 -12 32 -99 43 -196 26z"/>
<path d="M196 6905 c-54 -19 -89 -47 -101 -79 -12 -35 1 -56 47 -79 39 -19
154 -44 163 -35 3 3 11 33 17 66 13 71 1 113 -38 131 -31 14 -40 13 -88 -4z"/>
<path d="M11738 6783 l-38 -4 0 -68 c0 -82 23 -121 71 -121 82 0 187 107 159
160 -18 33 -83 44 -192 33z"/>
<path d="M178 6610 c-50 -15 -96 -50 -113 -86 -16 -34 -16 -37 2 -56 26 -30
71 -46 145 -54 62 -6 65 -6 71 17 14 50 8 136 -10 157 -22 25 -58 34 -95 22z"/>
<path d="M11730 6415 c0 -106 26 -136 106 -121 39 8 111 67 125 104 21 55 -30
82 -152 82 l-79 0 0 -65z"/>
<path d="M118 6280 c-48 -26 -80 -67 -76 -99 4 -36 59 -61 147 -68 82 -7 85
-4 86 88 0 73 -21 99 -79 99 -23 -1 -57 -10 -78 -20z"/>
<path d="M11746 6158 c-10 -41 -6 -108 9 -137 18 -35 49 -44 101 -30 45 13
124 86 124 116 0 43 -72 72 -176 73 -45 0 -52 -3 -58 -22z"/>
<path d="M130 5980 c-46 -24 -89 -70 -92 -99 -5 -43 41 -66 143 -69 l89 -4 0
76 c0 63 -4 80 -20 96 -25 25 -73 25 -120 0z"/>
<path d="M11746 5858 c-3 -13 -6 -48 -6 -79 0 -94 52 -123 145 -80 45 20 95
73 95 100 0 38 -57 64 -166 76 -58 5 -62 4 -68 -17z"/>
<path d="M155 5681 c-50 -22 -105 -84 -105 -116 0 -42 41 -59 137 -60 100 0
105 5 100 89 -3 49 -8 63 -31 83 -32 28 -48 28 -101 4z"/>
<path d="M11730 5541 c-27 -98 1 -171 66 -171 48 0 93 21 132 60 67 70 21 124
-119 139 l-69 7 -10 -35z"/>
<path d="M203 5389 c-42 -12 -109 -76 -118 -112 -15 -58 16 -77 126 -77 94 0
109 9 109 66 0 60 -23 112 -55 124 -15 6 -27 10 -28 9 -1 0 -17 -5 -34 -10z"/>
<path d="M11700 5241 c-17 -61 -13 -128 10 -151 61 -61 249 37 210 110 -15 28
-80 57 -153 68 l-57 9 -10 -36z"/>
<path d="M234 5081 c-82 -37 -132 -136 -87 -172 18 -15 113 -18 176 -6 l37 8
0 62 c0 42 -6 71 -17 87 -9 14 -17 26 -17 27 -1 1 -12 4 -26 7 -15 4 -42 -2
-66 -13z"/>
<path d="M11652 4942 c-19 -62 -15 -125 8 -150 52 -55 210 5 210 79 0 44 -63
81 -176 104 -29 5 -31 3 -42 -33z"/>
<path d="M285 4800 c-35 -14 -93 -87 -101 -125 -13 -70 43 -96 165 -75 l71 12
0 36 c0 116 -60 183 -135 152z"/>
<path d="M11585 4625 c-29 -99 -2 -155 75 -155 47 0 121 38 139 71 13 24 13
30 -3 54 -19 29 -99 70 -158 80 l-37 7 -16 -57z"/>
<path d="M364 4505 c-40 -16 -92 -81 -100 -121 -9 -48 3 -71 42 -84 33 -11 49
-10 148 12 l48 11 -5 49 c-12 102 -70 160 -133 133z"/>
<path d="M11500 4321 c-29 -91 -13 -142 49 -156 64 -14 181 51 181 101 0 30
-57 78 -125 103 -30 12 -62 21 -69 21 -8 0 -23 -29 -36 -69z"/>
<path d="M422 4195 c-34 -28 -72 -99 -72 -133 0 -12 9 -31 20 -42 26 -26 79
-26 164 0 63 20 66 22 60 48 -31 141 -98 190 -172 127z"/>
<path d="M11405 4048 c-31 -66 -33 -128 -5 -153 41 -37 158 -28 214 16 34 27
35 71 1 105 -27 27 -143 84 -170 84 -9 0 -26 -22 -40 -52z"/>
<path d="M539 3917 c-73 -49 -120 -155 -84 -190 24 -25 102 -21 180 7 37 13
69 26 72 29 10 11 -28 117 -53 146 -31 38 -67 40 -115 8z"/>
<path d="M11301 3772 c-23 -48 -30 -110 -16 -132 4 -7 23 -18 41 -26 70 -29
176 13 182 72 2 25 -4 37 -30 59 -33 28 -123 75 -144 75 -6 0 -21 -22 -33 -48z"/>
<path d="M670 3638 c-51 -26 -98 -87 -106 -139 -12 -74 50 -88 186 -43 56 19
80 31 80 43 0 61 -50 142 -95 155 -12 4 -40 -4 -65 -16z"/>
<path d="M11202 3537 c-5 -7 -19 -31 -31 -54 -46 -93 -15 -153 81 -153 91 0
148 41 129 93 -19 49 -159 139 -179 114z"/>
<path d="M795 3348 c-33 -26 -64 -91 -65 -135 0 -44 36 -68 85 -59 41 8 111
37 138 58 18 14 18 16 -3 61 -26 54 -71 97 -104 97 -13 0 -36 -10 -51 -22z"/>
<path d="M11040 3228 c-50 -87 -38 -150 30 -168 78 -21 170 17 170 70 0 37
-51 90 -120 125 l-50 25 -30 -52z"/>
<path d="M937 3073 c-30 -33 -57 -92 -57 -128 0 -14 9 -34 21 -46 17 -17 28
-20 57 -15 43 8 162 65 162 78 0 20 -51 108 -72 122 -35 25 -80 20 -111 -11z"/>
<path d="M10881 2970 c-48 -61 -59 -101 -37 -135 26 -39 74 -58 144 -59 68 0
114 23 120 60 4 27 -38 80 -99 126 -87 65 -83 65 -128 8z"/>
<path d="M1104 2805 c-53 -56 -68 -131 -33 -166 16 -16 27 -19 52 -13 38 8
113 45 145 70 l22 19 -20 40 c-48 92 -109 110 -166 50z"/>
<path d="M10729 2727 c-97 -118 -69 -200 66 -200 99 0 146 50 108 115 -21 36
-117 118 -136 117 -7 0 -24 -15 -38 -32z"/>
<path d="M1288 2595 c-56 -31 -87 -153 -52 -204 26 -36 89 -25 169 30 l64 43
-22 39 c-27 48 -91 107 -115 107 -9 -1 -29 -7 -44 -15z"/>
<path d="M10551 2485 c-68 -78 -78 -141 -28 -179 22 -17 43 -21 97 -21 82 0
110 18 110 73 0 29 -10 44 -65 98 -36 35 -69 64 -74 64 -5 0 -23 -16 -40 -35z"/>
<path d="M1479 2353 c-65 -40 -107 -159 -75 -208 18 -28 49 -32 93 -13 37 16
163 98 163 106 0 17 -67 102 -91 116 -34 20 -57 20 -90 -1z"/>
<path d="M10360 2257 c-94 -84 -91 -152 9 -186 70 -23 154 -8 166 30 4 10 -1
34 -10 53 -19 39 -107 126 -127 126 -7 0 -24 -11 -38 -23z"/>
<path d="M1681 2114 c-31 -22 -51 -73 -51 -132 0 -49 12 -75 41 -85 25 -8 110
36 152 80 l37 39 -31 42 c-49 67 -103 87 -148 56z"/>
<path d="M10139 2012 c-26 -26 -51 -60 -54 -75 -15 -57 50 -107 139 -107 89 0
123 38 91 100 -20 38 -103 130 -118 130 -5 0 -31 -22 -58 -48z"/>
<path d="M1885 1894 c-49 -53 -58 -166 -17 -207 30 -29 73 -14 142 50 33 30
60 59 60 65 0 19 -63 87 -95 102 -46 22 -62 20 -90 -10z"/>
<path d="M9927 1799 c-67 -65 -74 -99 -29 -141 65 -60 172 -64 202 -8 15 28
-15 91 -72 154 l-45 50 -56 -55z"/>
<path d="M2105 1694 c-29 -31 -39 -77 -33 -145 12 -118 90 -117 191 3 l40 47
-36 44 c-35 43 -89 77 -121 77 -10 0 -28 -12 -41 -26z"/>
<path d="M9722 1617 c-73 -55 -95 -108 -61 -151 28 -36 76 -56 133 -56 75 0
95 43 56 120 -21 41 -77 110 -89 110 -4 0 -21 -11 -39 -23z"/>
<path d="M2353 1509 c-52 -19 -75 -140 -40 -206 31 -59 94 -42 172 46 50 56
50 60 14 98 -52 53 -107 77 -146 62z"/>
<path d="M9474 1418 c-27 -18 -58 -50 -69 -70 -18 -35 -19 -40 -5 -65 26 -46
65 -67 133 -71 73 -5 97 10 97 59 0 44 -75 179 -100 179 -4 0 -30 -15 -56 -32z"/>
<path d="M2569 1304 c-21 -22 -24 -35 -24 -94 0 -86 24 -126 75 -123 35 1 63
24 122 97 l39 49 -27 29 c-33 34 -101 68 -135 68 -14 0 -36 -11 -50 -26z"/>
<path d="M9235 1254 c-16 -9 -45 -30 -62 -47 -58 -54 -37 -124 49 -168 48 -24
118 -29 142 -10 28 24 20 88 -22 166 -42 76 -58 85 -107 59z"/>
<path d="M2841 1154 c-48 -34 -67 -146 -37 -218 34 -81 103 -47 205 102 l23
33 -28 31 c-32 33 -94 68 -121 68 -10 0 -29 -7 -42 -16z"/>
<path d="M9004 1095 c-17 -7 -47 -27 -67 -45 -64 -56 -43 -127 48 -166 84 -35
145 -3 130 68 -8 35 -59 143 -72 151 -5 3 -22 -1 -39 -8z"/>
<path d="M3096 987 c-68 -68 -54 -247 19 -247 15 0 42 15 64 36 39 35 111 133
111 151 0 19 -92 75 -130 80 -32 5 -43 1 -64 -20z"/>
<path d="M8722 934 c-92 -46 -114 -97 -65 -155 32 -37 78 -59 127 -59 75 0 83
55 27 175 -16 36 -32 65 -34 65 -1 0 -26 -12 -55 -26z"/>
<path d="M3365 830 c-42 -47 -25 -170 29 -205 25 -16 28 -16 54 1 15 9 33 25
40 33 22 28 72 116 72 128 0 18 -100 63 -140 63 -24 0 -43 -7 -55 -20z"/>
<path d="M8440 800 c-58 -20 -100 -58 -100 -91 0 -48 58 -117 122 -143 54 -23
85 -20 104 9 14 22 15 34 5 82 -12 61 -55 163 -68 163 -4 -1 -33 -9 -63 -20z"/>
<path d="M3669 719 c-52 -19 -65 -104 -26 -179 18 -37 28 -46 53 -48 25 -2 37
4 64 34 18 21 43 60 56 88 22 48 23 52 6 65 -44 34 -116 53 -153 40z"/>
<path d="M8145 674 c-93 -34 -108 -103 -38 -177 58 -60 140 -86 171 -55 19 19
14 107 -11 178 -21 59 -25 65 -52 67 -17 1 -48 -4 -70 -13z"/>
<path d="M3918 609 c-46 -26 -41 -160 9 -219 50 -60 108 -28 158 85 41 93 42
90 -17 119 -54 27 -119 34 -150 15z"/>
<path d="M7858 564 c-49 -15 -88 -53 -88 -86 0 -99 192 -204 224 -123 10 28 5
97 -12 160 -16 55 -19 60 -47 62 -16 1 -51 -5 -77 -13z"/>
<path d="M4223 510 c-47 -19 -57 -95 -22 -167 56 -116 134 -87 188 70 l20 58
-42 19 c-53 23 -116 32 -144 20z"/>
<path d="M7577 476 c-58 -16 -97 -50 -97 -86 0 -59 83 -145 151 -156 53 -9 74
21 72 99 -1 34 -8 82 -15 107 -16 52 -32 57 -111 36z"/>
<path d="M4514 407 c-47 -41 -30 -147 32 -196 15 -12 33 -21 41 -21 33 0 84
86 107 182 6 26 3 28 -46 43 -71 21 -102 19 -134 -8z"/>
<path d="M7281 395 c-89 -28 -112 -79 -66 -147 32 -47 83 -78 128 -78 30 0 39
5 52 30 17 34 18 84 2 155 -11 46 -15 50 -42 52 -17 1 -50 -4 -74 -12z"/>
<path d="M4807 342 c-30 -33 -31 -76 -4 -135 27 -60 53 -80 95 -75 21 2 32 14
54 58 15 30 30 76 34 102 l6 46 -38 11 c-62 17 -128 14 -147 -7z"/>
<path d="M6953 335 c-68 -29 -67 -91 6 -165 57 -60 94 -72 124 -41 18 18 22
33 22 84 -1 34 -4 79 -8 100 l-8 37 -52 0 c-29 -1 -66 -7 -84 -15z"/>
<path d="M5101 284 c-12 -15 -21 -34 -21 -43 0 -62 56 -152 101 -164 47 -13
98 75 102 176 2 47 -11 54 -105 56 -50 1 -59 -2 -77 -25z"/>
<path d="M6639 285 c-37 -20 -44 -57 -21 -108 39 -89 131 -135 166 -85 16 23
23 158 10 192 -8 21 -118 21 -155 1z"/>
<path d="M5416 257 c-29 -29 -31 -44 -15 -102 12 -43 76 -115 102 -115 39 0
69 59 83 166 8 62 4 65 -81 72 -58 4 -65 2 -89 -21z"/>
<path d="M6375 269 c-79 -13 -95 -81 -37 -164 49 -71 114 -88 142 -36 14 27
24 123 16 164 -6 32 -10 35 -44 39 -21 2 -56 0 -77 -3z"/>
<path d="M5725 248 c-28 -16 -35 -28 -35 -66 0 -57 50 -134 99 -153 58 -23 90
24 98 141 5 75 5 77 -18 83 -38 11 -122 7 -144 -5z"/>
<path d="M6025 238 c-24 -19 -27 -26 -22 -65 8 -78 81 -162 129 -149 37 9 51
44 56 135 5 98 3 101 -79 101 -43 0 -63 -5 -84 -22z"/>
</g>
</svg>
