<?xml version="1.0" standalone="no"?>
<!DOCTYPE svg PUBLIC "-//W3C//DTD SVG 20010904//EN"
 "http://www.w3.org/TR/2001/REC-SVG-20010904/DTD/svg10.dtd">
<svg version="1.0" xmlns="http://www.w3.org/2000/svg"
 width="300.000000pt" height="351.000000pt" viewBox="0 0 300.000000 351.000000"
 preserveAspectRatio="xMidYMid meet">
<metadata>
Created by potrace 1.10, written by Peter Selinger 2001-2011
</metadata>
<g transform="translate(0.000000,351.000000) scale(0.100000,-0.100000)"
fill="#000000" stroke="none">
<path d="M20 2915 l0 -565 213 0 212 0 -3 -310 -3 -310 286 0 285 0 0 -361 0
-360 -140 3 -140 3 0 -495 0 -495 770 0 770 0 0 493 0 492 -140 0 -140 0 0
360 0 360 280 0 280 0 0 310 0 310 210 0 210 0 0 565 0 565 -1475 0 -1475 0 0
-565z m90 514 c-13 -6 -28 -15 -32 -22 -4 -7 -8 -231 -8 -498 0 -564 -8 -522
102 -519 35 1 132 2 217 1 l154 -1 -21 -23 c-22 -23 -22 -29 -22 -285 1 -243
2 -262 21 -285 l19 -25 197 -1 c240 -2 243 0 243 89 l0 60 40 0 40 0 0 -475 0
-475 -121 0 c-66 0 -129 -5 -140 -10 -17 -10 -19 -22 -19 -125 0 -70 -4 -115
-10 -115 -6 0 -10 50 -10 130 l0 130 122 0 c99 0 125 3 140 17 17 15 18 40 18
373 0 332 -1 358 -18 373 -16 14 -54 17 -282 19 l-263 3 1 100 c4 215 -10 486
-25 501 -12 11 -54 14 -209 14 l-194 0 0 530 0 530 43 -1 c38 0 40 -1 17 -10z
m2828 -116 l-2 -128 -3 110 c-3 97 -6 112 -24 128 l-21 17 26 0 26 0 -2 -127z
m-35 -403 l2 -490 -352 0 -353 0 0 135 0 135 -140 0 -140 0 0 -170 0 -170 280
0 280 0 0 -270 0 -270 -210 0 -210 0 0 70 0 70 -70 0 -70 0 0 -505 0 -505 140
0 140 0 0 -420 0 -420 -697 0 -698 0 0 420 0 420 143 0 142 0 0 505 0 505 -71
0 -70 0 2 -70 c1 -38 -1 -70 -4 -70 -4 0 -99 0 -212 0 l-205 0 0 270 0 270
280 0 280 0 0 170 0 170 -146 0 -146 0 4 -135 3 -135 -352 0 -353 0 0 493 0
492 1400 -2 1400 -3 3 -490z m-1843 -395 l0 -135 -232 2 c-175 1 -206 3 -125
7 80 5 110 10 117 21 5 8 10 66 10 128 l0 112 115 0 115 0 0 -135z m1112 25
c-1 -121 9 -146 60 -153 18 -2 -38 -5 -124 -5 l-158 -2 0 135 0 136 111 -3
111 -3 0 -105z m768 -30 l0 -130 -192 0 c-164 0 -194 -2 -210 -17 -17 -15 -18
-38 -18 -310 l0 -293 -263 0 c-241 0 -265 -2 -280 -18 -12 -14 -17 -44 -20
-127 -1 -63 -4 -21 -5 98 l-2 207 40 0 40 0 0 -55 c0 -42 5 -60 20 -75 19 -19
33 -20 218 -20 184 0 200 1 216 19 16 18 18 47 18 292 0 270 0 273 -22 291
-21 17 -15 18 196 18 188 0 220 2 236 17 15 14 18 32 18 125 0 59 2 108 5 108
3 0 5 -58 5 -130z m-607 -127 c-13 -2 -33 -2 -45 0 -13 2 -3 4 22 4 25 0 35
-2 23 -4z m64 1 c-3 -3 -12 -4 -19 -1 -8 3 -5 6 6 6 11 1 17 -2 13 -5z m-420
-1386 c14 -15 34 -18 140 -18 l123 0 -2 -132 -2 -133 -3 110 c-5 148 -2 145
-160 145 l-123 0 2 133 2 132 3 -110 c3 -83 8 -113 20 -127z m-1197 -792 c0
-74 4 -116 12 -124 15 -15 1394 -17 1418 -2 11 7 16 38 21 127 l5 118 2 -132
2 -133 -42 0 c-57 -1 -1250 -1 -1355 0 l-83 0 0 136 c0 87 4 133 10 129 6 -4
10 -54 10 -119z"/>
<path d="M2855 3350 c-18 -20 -31 -20 -1347 -20 l-1328 0 0 -415 0 -415 280 0
280 0 0 128 0 127 210 -3 210 -3 0 -199 0 -200 348 0 347 0 -3 205 -3 205 215
0 c128 0 216 4 218 10 2 5 44 51 93 102 50 52 109 114 132 138 l43 45 -1050 3
-1050 2 0 -148 0 -148 -123 -122 c-68 -67 -126 -122 -128 -122 -2 0 -3 175 -1
390 2 300 5 390 15 390 6 1 594 2 1306 3 l1294 2 -129 -123 -129 -122 -2 -147
-3 -146 -111 -106 c-61 -58 -121 -113 -133 -122 l-21 -17 3 105 c3 65 0 109
-6 115 -8 8 -12 -27 -14 -116 l-3 -126 288 0 287 0 0 415 c0 260 4 415 10 415
5 0 14 9 20 20 6 11 9 20 7 20 -2 0 -12 -9 -22 -20z m-52 -452 c-2 -198 -4
-362 -5 -364 -5 -4 -468 -9 -468 -5 0 7 110 111 117 111 3 0 32 28 64 63 l59
62 2 115 c1 63 2 127 2 142 1 15 8 35 18 45 53 57 169 163 178 163 6 0 9 4 6
9 -5 8 6 17 24 20 3 1 4 -162 3 -361z m-1293 -188 c0 -333 0 -340 -20 -340
-11 0 -20 6 -21 13 0 9 -2 9 -6 -1 -4 -10 -39 -12 -143 -11 l-138 1 -2 181 c0
100 -2 189 -3 198 -1 10 63 72 162 158 90 77 166 141 167 141 2 0 4 -153 4
-340z m-659 310 c239 0 369 4 369 10 0 6 43 10 110 10 91 0 110 -3 110 -15 0
-8 -3 -15 -7 -15 -5 -1 -30 -21 -58 -46 -27 -25 -63 -56 -80 -69 -16 -13 -52
-44 -80 -69 l-50 -46 -215 0 c-155 0 -219 -3 -228 -12 -8 -8 -12 -50 -12 -125
l0 -113 -230 0 c-267 0 -257 -8 -138 105 133 127 128 117 129 274 0 75 3 130
6 124 4 -10 88 -13 374 -13z m711 9 c14 -8 23 -8 31 0 14 14 217 15 217 1 0
-6 70 -10 190 -10 126 0 190 4 190 11 0 12 288 10 296 -3 3 -4 -9 -21 -26 -38
-16 -16 -30 -31 -30 -32 0 -2 -35 -41 -79 -87 l-78 -84 -203 2 c-243 3 -240 4
-240 -99 0 -37 -3 -122 -7 -188 l-6 -122 -144 0 -143 0 0 320 c0 249 3 320 13
320 8 0 7 4 -3 10 -21 13 -3 13 22 -1z"/>
<path d="M1110 2720 c-8 -5 -12 -12 -9 -15 4 -3 12 1 19 10 14 17 11 19 -10 5z"/>
<path d="M2215 2719 c-11 -17 1 -21 15 -4 8 9 8 15 2 15 -6 0 -14 -5 -17 -11z"/>
<path d="M139 2464 c-21 -24 -22 -26 -3 -16 25 13 50 42 37 42 -5 0 -20 -12
-34 -26z"/>
<path d="M2235 2463 l-17 -28 23 22 c12 12 20 25 17 28 -3 3 -13 -7 -23 -22z"/>
<path d="M1878 2353 c6 -2 18 -2 25 0 6 3 1 5 -13 5 -14 0 -19 -2 -12 -5z"/>
<path d="M2435 2310 c-10 -11 -13 -20 -7 -20 6 0 16 9 22 20 6 11 9 20 7 20
-2 0 -12 -9 -22 -20z"/>
<path d="M600 2081 c0 -196 -1 -206 -22 -228 -12 -13 -16 -23 -10 -23 6 0 16
9 22 20 10 19 21 20 150 20 l139 0 3 73 c2 39 6 71 11 70 4 -2 113 -3 242 -3
l235 0 0 -670 0 -670 -105 0 -105 0 0 -142 c0 -132 -2 -143 -22 -165 -12 -13
-17 -23 -12 -23 6 0 20 11 32 25 l22 26 335 -3 335 -3 0 136 c0 135 0 137 25
153 14 9 25 22 25 28 0 6 -10 2 -23 -10 -21 -20 -34 -22 -130 -22 l-107 0 0
668 c0 368 2 671 4 673 2 2 113 3 245 1 l241 -3 0 -69 0 -70 140 0 140 0 0
208 0 207 -905 0 -905 0 0 -204z m1735 129 l-59 -60 -767 0 -767 0 6 -65 5
-66 -63 -57 c-35 -31 -66 -58 -69 -60 -3 -1 -5 79 -3 178 l3 180 866 0 c477 0
869 2 871 5 3 3 12 5 21 5 9 0 -9 -25 -44 -60z m43 -295 c-2 -1 -46 -5 -98 -8
-52 -3 -89 -3 -82 0 6 3 12 11 12 19 0 8 6 14 13 14 6 0 24 16 40 35 23 29 27
45 29 97 1 60 3 65 42 105 l41 42 3 -151 c1 -83 1 -152 0 -153z m-878 -580 l0
-805 -102 0 -103 0 -56 -62 -57 -63 3 70 c1 39 3 89 4 113 1 31 5 42 17 42 8
0 12 5 8 11 -7 12 72 8 111 -5 14 -5 27 0 43 14 26 24 24 -39 25 813 0 396 -2
530 -11 539 -10 10 2 26 50 75 34 35 64 63 65 63 2 0 3 -362 3 -805z m780 742
l0 -62 -62 -55 c-33 -30 -64 -56 -67 -58 -3 -1 -5 19 -2 44 2 27 -2 51 -9 57
-9 9 5 27 57 74 37 34 71 63 76 63 4 0 7 -28 7 -63z m-846 46 c3 -4 -10 -24
-31 -45 l-37 -38 -241 0 c-174 0 -244 -3 -253 -12 -7 -7 -12 -36 -12 -65 l0
-53 -96 0 -96 0 46 48 c47 48 50 57 48 145 l-1 27 333 0 c183 0 336 -3 340 -7z
m745 -38 l-44 -45 -246 0 c-217 0 -248 -2 -260 -17 -12 -13 -14 -133 -14 -687
l0 -670 -39 -38 c-22 -20 -43 -35 -48 -32 -5 3 -8 349 -8 770 l1 764 351 0
351 -1 -44 -44z m-432 -1435 l86 0 -54 -59 -54 -59 -110 -1 -109 -1 64 65 c37
37 70 63 78 60 8 -3 52 -5 99 -5z m75 -149 l-4 -81 -256 0 c-141 0 -274 -3
-294 -6 -50 -9 -50 8 1 58 l39 38 204 0 c221 0 225 1 279 62 13 14 26 23 29
18 3 -4 4 -44 2 -89z"/>
<path d="M1268 633 c6 -2 18 -2 25 0 6 3 1 5 -13 5 -14 0 -19 -2 -12 -5z"/>
<path d="M1310 1975 c-7 -8 -8 -15 -2 -15 5 0 15 7 22 15 7 8 8 15 2 15 -5 0
-15 -7 -22 -15z"/>
<path d="M2070 1975 c-7 -8 -8 -15 -2 -15 5 0 15 7 22 15 7 8 8 15 2 15 -5 0
-15 -7 -22 -15z"/>
<path d="M1113 1953 c9 -2 23 -2 30 0 6 3 -1 5 -18 5 -16 0 -22 -2 -12 -5z"/>
<path d="M1160 1413 l0 -538 -145 3 -145 3 0 -357 c0 -357 0 -358 -22 -382
-23 -25 -23 -25 -1 -13 12 6 23 16 25 23 4 10 138 13 631 15 l627 3 1 352 0
353 -113 3 c-118 3 -163 -2 -153 -18 3 -5 60 -8 125 -6 138 3 136 12 27 -93
-70 -67 -77 -70 -77 -37 0 27 -5 30 -91 41 -25 3 -58 1 -74 -5 -46 -18 -42 -2
18 58 l57 57 2 538 3 537 -72 0 -73 0 0 -607 0 -608 105 3 c104 3 105 3 105
-20 2 -268 1 -403 -4 -400 -3 1 -190 2 -416 2 l-410 0 0 211 0 211 105 -4 105
-3 0 608 0 607 -70 0 -70 0 0 -537z m108 -65 l-3 -583 -85 -3 c-46 -2 -90 -8
-97 -14 -11 -9 -13 -53 -13 -196 l2 -185 -91 -91 -91 -91 1 333 1 332 21 1
c12 0 72 0 133 -1 83 -1 114 2 122 13 8 10 12 159 12 540 l1 527 44 0 45 0 -2
-582z m553 62 c1 -280 2 -516 3 -522 2 -11 -67 -88 -79 -88 -2 0 -3 252 -2
560 l1 560 38 0 38 0 1 -510z m282 -901 c-2 -166 -4 -303 -6 -305 -1 -1 -264
-4 -585 -6 -478 -2 -579 -1 -565 10 10 7 17 15 16 17 -2 3 19 27 46 55 l48 49
21 -24 21 -24 409 -1 c379 0 410 1 424 17 12 14 17 58 22 203 l7 185 45 43
c25 23 50 42 55 42 5 0 9 7 9 16 0 8 4 13 9 9 5 -3 12 -1 16 5 3 5 7 10 8 10
1 0 1 -136 0 -301z"/>
<path d="M2100 1845 c-11 -13 -10 -14 4 -9 9 3 16 10 16 15 0 13 -6 11 -20 -6z"/>
<path d="M1680 715 c-11 -13 -10 -14 4 -9 9 3 16 10 16 15 0 13 -6 11 -20 -6z"/>
<path d="M2347 139 c-20 -12 -14 -31 8 -23 8 4 12 10 9 15 -3 5 6 9 20 9 18 0
24 -4 20 -15 -4 -8 -12 -15 -20 -15 -8 0 -14 -5 -14 -10 0 -7 7 -7 22 1 18 10
20 9 14 -7 -4 -14 -1 -13 15 6 19 23 20 25 3 37 -21 15 -52 16 -77 2z"/>
<path d="M2322 81 c-3 -35 32 -71 50 -53 7 7 9 12 5 12 -4 0 -3 9 3 20 7 14 7
20 0 20 -5 0 -10 -6 -10 -14 0 -8 -7 -17 -16 -20 -10 -4 -13 -2 -8 6 4 6 3 8
-3 5 -6 -4 -8 3 -6 17 3 13 1 26 -4 29 -5 3 -10 -7 -11 -22z"/>
<path d="M2441 85 c-1 -23 -6 -31 -21 -32 -13 -1 -18 2 -14 9 4 6 3 8 -4 5
-12 -8 -9 -40 5 -44 19 -7 45 34 40 64 l-4 28 -2 -30z m-16 -45 c-3 -5 -12
-10 -18 -10 -7 0 -6 4 3 10 19 12 23 12 15 0z"/>
<path d="M2352 80 c0 -14 2 -19 5 -12 2 6 2 18 0 25 -3 6 -5 1 -5 -13z"/>
</g>
</svg>
